<svg width="20" height="20" viewBox="0 0 20 20" fill="none" xmlns="http://www.w3.org/2000/svg">
<path d="M6.10156 0.980469C5.28906 1.08594 4.51562 1.55078 4.07031 2.19531C3.875 2.48047 0.464844 8.39844 0.308594 8.73047C0.0859375 9.19531 0.0234375 9.47656 0.0234375 10C0.0234375 10.5234 0.0859375 10.8047 0.308594 11.2695C0.464844 11.6016 3.875 17.5195 4.07031 17.8047C4.44922 18.3555 5.1289 18.8125 5.8164 18.9727C6.08984 19.0391 6.40625 19.043 10 19.043C13.5937 19.043 13.9102 19.0391 14.1836 18.9727C14.8711 18.8125 15.5508 18.3555 15.9297 17.8047C16.125 17.5195 19.5352 11.6016 19.6914 11.2695C19.9141 10.8047 19.9766 10.5234 19.9766 10C19.9766 9.47656 19.9141 9.19531 19.6914 8.73047C19.5352 8.39844 16.125 2.48047 15.9297 2.19531C15.5664 1.66406 14.9414 1.23438 14.2617 1.04297C13.9687 0.960938 13.9297 0.957031 10.1562 0.953125C8.0625 0.949219 6.23828 0.960938 6.10156 0.980469ZM10.9766 3.78906C13.2266 4.14844 15.1602 5.75 15.9102 7.87109C16.1758 8.62109 16.2656 9.15625 16.2656 10C16.2656 10.8438 16.1758 11.3789 15.9102 12.1289C15.3008 13.8477 13.8477 15.3008 12.1289 15.9102C11.3789 16.1758 10.8437 16.2656 10 16.2656C9.15625 16.2656 8.62109 16.1758 7.87109 15.9102C6.15234 15.3008 4.69922 13.8477 4.08984 12.1289C3.82422 11.3789 3.73437 10.8438 3.73437 10C3.73437 9.15625 3.82422 8.62109 4.08984 7.87109C4.84375 5.74609 6.85547 4.08594 9.04297 3.79297C9.21484 3.76953 9.41015 3.74219 9.47265 3.73438C9.66406 3.70703 10.7031 3.74219 10.9766 3.78906Z" fill="#486BB1"/>
<path d="M9.23828 4.94144C8.84765 5.00394 8.52734 5.08597 8.1875 5.21487C6.85547 5.71487 5.71484 6.8555 5.21484 8.18753C4.77734 9.34768 4.77734 10.6524 5.21484 11.8125C5.78125 13.3203 7.13281 14.5391 8.6875 14.9453C9.71484 15.2149 10.8242 15.1563 11.8125 14.7852C13.1445 14.2852 14.2852 13.1446 14.7852 11.8125C15.2227 10.6524 15.2227 9.34768 14.7852 8.18753C14.2852 6.8555 13.1445 5.71487 11.8125 5.21487C11.0156 4.91409 10.0508 4.81253 9.23828 4.94144ZM10.5977 6.62112C11.2969 6.74222 11.9258 7.07815 12.4414 7.59769C13.7656 8.93753 13.7656 11.0625 12.4414 12.4024C11.0898 13.7735 8.9414 13.7813 7.57812 12.4219C6.22656 11.0664 6.22656 8.93362 7.57812 7.57815C8.38672 6.76956 9.47656 6.42581 10.5977 6.62112Z" fill="#486BB1"/>
</svg>
