<svg width="43" height="46" viewBox="0 0 43 46" fill="none" xmlns="http://www.w3.org/2000/svg">
<path d="M30.1667 44.8058V36.7433C30.2448 35.7499 30.1106 34.7512 29.7729 33.8137C29.4353 32.8762 28.9019 32.0213 28.2083 31.3058C34.75 30.5767 41.625 28.0975 41.625 16.7225C41.6245 13.8138 40.5056 11.0166 38.5 8.90999C39.4497 6.36521 39.3825 3.55238 38.3125 1.05582C38.3125 1.05582 35.8542 0.326652 30.1667 4.13915C25.3917 2.84503 20.3583 2.84503 15.5833 4.13915C9.89583 0.326652 7.4375 1.05582 7.4375 1.05582C6.36745 3.55238 6.3003 6.36521 7.25 8.90999C5.22943 11.0323 4.10942 13.8547 4.125 16.785C4.125 28.0767 11 30.5558 17.5417 31.3683C16.8562 32.0766 16.3276 32.9212 15.9902 33.8473C15.6528 34.7734 15.5142 35.7601 15.5833 36.7433V44.8058M15.5833 38.5558C5.16667 41.6808 5.16667 33.3475 1 32.3058L15.5833 38.5558Z" stroke="url(#paint0_linear)" stroke-width="2" stroke-linecap="round" stroke-linejoin="round"/>
<defs>
<linearGradient id="paint0_linear" x1="1" y1="1" x2="46.3591" y2="7.32215" gradientUnits="userSpaceOnUse">
<stop stop-color="#FF416C"/>
<stop offset="1" stop-color="#FF4B2B"/>
</linearGradient>
</defs>
</svg>
