<svg width="15" height="8" viewBox="0 0 15 8" fill="none" xmlns="http://www.w3.org/2000/svg">
<path d="M0.00070102 1.16996C0.00019271 1.31935 0.033165 1.46696 0.0971938 1.60194C0.161223 1.73692 0.254682 1.85584 0.370702 1.94996L6.3707 6.77996C6.54963 6.92704 6.77408 7.00745 7.0057 7.00745C7.23733 7.00745 7.46177 6.92704 7.6407 6.77996L13.6407 1.77996C13.8449 1.61022 13.9733 1.36631 13.9977 1.10188C14.0221 0.837456 13.9404 0.574175 13.7707 0.369958C13.601 0.165742 13.3571 0.0373177 13.0926 0.012938C12.8282 -0.0114417 12.5649 0.0702195 12.3607 0.239958L7.0007 4.70996L1.6407 0.389959C1.49392 0.267676 1.31518 0.189998 1.12563 0.166119C0.936078 0.142239 0.743653 0.173156 0.571126 0.255212C0.398599 0.337268 0.253187 0.467028 0.152097 0.629138C0.0510064 0.791249 -0.00153058 0.978925 0.00070102 1.16996Z" fill="url(#paint0_linear)"/>
<defs>
<linearGradient id="paint0_linear" x1="14.002" y1="7.00745" x2="13.4068" y2="-0.913969" gradientUnits="userSpaceOnUse">
<stop stop-color="#FF416C"/>
<stop offset="1" stop-color="#FF4B2B"/>
</linearGradient>
</defs>
</svg>
