<svg width="8" height="15" viewBox="0 0 8 15" fill="none" xmlns="http://www.w3.org/2000/svg">
<path d="M1.17032 15C1.31972 15.0005 1.46733 14.9675 1.60231 14.9035C1.73729 14.8394 1.85621 14.746 1.95032 14.63L6.78032 8.62997C6.92741 8.45104 7.00781 8.2266 7.00781 7.99497C7.00781 7.76335 6.92741 7.5389 6.78032 7.35997L1.78032 1.35997C1.61059 1.15575 1.36667 1.02733 1.10225 1.00295C0.837822 0.97857 0.574541 1.06023 0.370325 1.22997C0.166108 1.39971 0.037684 1.64362 0.0133042 1.90805C-0.0110755 2.17247 0.0705857 2.43575 0.240324 2.63997L4.71032 7.99997L0.390325 13.36C0.268042 13.5068 0.190365 13.6855 0.166485 13.875C0.142606 14.0646 0.173522 14.257 0.255579 14.4295C0.337635 14.6021 0.467394 14.7475 0.629505 14.8486C0.791615 14.9497 0.979291 15.0022 1.17032 15Z" fill="#FFFFFE"/>
</svg>
