<svg width="32" height="16" viewBox="0 0 32 16" fill="none" xmlns="http://www.w3.org/2000/svg">
<path d="M11 8C11 9.10457 10.1046 10 9 10C7.89543 10 7 9.10457 7 8C7 6.89543 7.89543 6 9 6C10.1046 6 11 6.89543 11 8Z" fill="url(#paint0_linear)"/>
<path d="M31.7071 8.70711C32.0976 8.31658 32.0976 7.68342 31.7071 7.29289L25.3431 0.928933C24.9526 0.538409 24.3195 0.538409 23.9289 0.928933C23.5384 1.31946 23.5384 1.95262 23.9289 2.34315L29.5858 8L23.9289 13.6569C23.5384 14.0474 23.5384 14.6805 23.9289 15.0711C24.3195 15.4616 24.9526 15.4616 25.3431 15.0711L31.7071 8.70711ZM14 9L31 9V7L14 7V9ZM10 8C10 8.55228 9.55229 9 9 9V11C10.6569 11 12 9.65685 12 8H10ZM9 9C8.44771 9 8 8.55228 8 8H6C6 9.65685 7.34315 11 9 11V9ZM8 8C8 7.44772 8.44771 7 9 7V5C7.34315 5 6 6.34315 6 8H8ZM9 7C9.55229 7 10 7.44772 10 8H12C12 6.34315 10.6569 5 9 5V7ZM0 9H4V7H0V9Z" fill="url(#paint1_linear)"/>
<defs>
<linearGradient id="paint0_linear" x1="0" y1="6" x2="14.9722" y2="23.4392" gradientUnits="userSpaceOnUse">
<stop stop-color="#FF416C"/>
<stop offset="1" stop-color="#FF4B2B"/>
</linearGradient>
<linearGradient id="paint1_linear" x1="0" y1="6" x2="14.9722" y2="23.4392" gradientUnits="userSpaceOnUse">
<stop stop-color="#FF416C"/>
<stop offset="1" stop-color="#FF4B2B"/>
</linearGradient>
</defs>
</svg>
