<svg width="30" height="26" viewBox="0 0 30 26" fill="none" xmlns="http://www.w3.org/2000/svg">
<path d="M29.5368 0.694885C29.1703 0.246735 28.6215 0 27.9911 0C27.6485 0 27.2855 0.0720978 26.9124 0.214691L1.51799 9.90852C0.170335 10.4228 -0.0111681 11.1946 0.000504848 11.6089C0.0121778 12.0232 0.237169 12.7835 1.61183 13.2209C1.62007 13.2234 1.62831 13.2259 1.63655 13.2282L6.90404 14.7356L9.7527 22.8815C10.1411 23.9921 11.0129 24.6819 12.0282 24.6819C12.6684 24.6819 13.2981 24.4137 13.8492 23.9065L17.1074 20.9065L21.8331 24.7117C21.8335 24.7121 21.8342 24.7124 21.8347 24.7128L21.8795 24.749C21.8837 24.7522 21.888 24.7556 21.8921 24.7588C22.4174 25.1662 22.9908 25.3814 23.5508 25.3816H23.5511C24.6454 25.3816 25.5167 24.5716 25.7705 23.3183L29.9314 2.7729C30.0985 1.94824 29.9584 1.21033 29.5368 0.694885ZM8.6662 14.4493L18.8288 9.25758L12.5009 15.9814C12.3972 16.0915 12.3237 16.2263 12.2876 16.3731L11.0674 21.3155L8.6662 14.4493ZM12.6584 22.6133C12.6162 22.652 12.5739 22.6865 12.5316 22.7184L13.6636 18.1334L15.7229 19.7916L12.6584 22.6133ZM28.2086 2.42386L24.0477 22.9694C24.0077 23.166 23.8797 23.6236 23.5508 23.6236C23.3883 23.6236 23.1842 23.535 22.9752 23.3741L17.6203 19.0624C17.6196 19.0617 17.6187 19.0611 17.6178 19.0606L14.4315 16.4948L23.5824 6.77124C23.8754 6.45996 23.9019 5.9832 23.6454 5.64125C23.3886 5.2993 22.9232 5.19173 22.5426 5.38628L7.49181 13.0753L2.15268 11.5478L27.5393 1.85692C27.7538 1.77498 27.9035 1.75781 27.9911 1.75781C28.0449 1.75781 28.1406 1.76422 28.1761 1.80794C28.2228 1.86493 28.2823 2.05925 28.2086 2.42386Z" fill="#FFFFFE"/>
</svg>
