<svg width="30" height="30" viewBox="0 0 30 30" fill="none" xmlns="http://www.w3.org/2000/svg">
<path d="M25.5945 4.40552C22.7536 1.56464 18.991 0 15 0C6.74011 0 0 6.74103 0 15C0 17.444 0.600128 19.8566 1.73882 22.0015L0.0258636 28.9096C-0.0482941 29.2085 0.0395965 29.5246 0.257492 29.7425C0.474014 29.9593 0.789642 30.0488 1.09039 29.9741L7.9985 28.261C10.1434 29.3996 12.556 30 15 30C18.991 30 22.7536 28.4354 25.5945 25.5945C28.4354 22.7534 30 18.991 30 15C30 11.009 28.4354 7.2464 25.5945 4.40552ZM15 28.2422C12.7386 28.2422 10.5084 27.6601 8.54988 26.5594C8.35487 26.4498 8.12531 26.4187 7.90764 26.4725L2.08305 27.9169L3.5273 22.0921C3.58131 21.8749 3.55019 21.6451 3.44055 21.4499C2.33963 19.4916 1.75781 17.2614 1.75781 15C1.75781 7.69821 7.69821 1.75781 15 1.75781C22.3018 1.75781 28.2422 7.69821 28.2422 15C28.2422 22.3018 22.3018 28.2422 15 28.2422Z" fill="#3D3D3D"/>
<path d="M22.9305 17.6689C22.348 17.0862 21.7067 16.498 20.9658 16.1407C19.8587 15.6072 18.8024 15.76 17.9912 16.5712C17.622 16.9404 17.1142 17.6682 16.8219 18.0262C16.0679 17.9001 14.5617 16.63 13.9636 16.034C13.3678 15.4359 12.0987 13.9294 11.9726 13.1771C12.3285 12.8864 13.0588 12.3765 13.4278 12.0078C14.2389 11.1966 14.3918 10.1401 13.8583 9.03321C13.501 8.29209 12.9128 7.65099 12.3305 7.06872C11.1445 5.8577 9.31501 5.76844 7.73595 7.34772C6.55584 8.52761 5.50459 10.715 7.19648 14.4355C8.19761 16.6364 9.811 18.5831 10.6064 19.3864L10.6125 19.3926C11.4159 20.1882 13.3626 21.8016 15.5635 22.8025C18.0491 23.933 20.7133 24.2012 22.6515 22.2633C24.2544 20.6602 24.1193 18.833 22.9305 17.6689ZM21.4084 21.0202C20.2638 22.1648 18.5422 22.2262 16.2911 21.2024C14.3149 20.3036 12.5255 18.8124 11.8524 18.1466C11.1866 17.4732 9.69541 15.6841 8.79659 13.7079C7.7728 11.4568 7.83415 9.73519 8.97878 8.59055C9.64689 7.92244 10.4159 7.62604 11.0747 8.29873L11.0872 8.31154C12.6475 9.87183 12.5368 10.4127 12.1847 10.7647C11.8723 11.0771 10.9488 11.7043 10.6503 12.0027C9.9497 12.7031 10.0802 13.788 11.0378 15.227C11.6093 16.086 12.3642 16.9196 12.7203 17.2766L12.7221 17.2787C13.0794 17.6348 13.9128 18.3897 14.7718 18.9612C16.211 19.9188 17.2957 20.0491 17.996 19.3487C18.2947 19.05 18.9216 18.1267 19.2341 17.8143C19.4721 17.5762 19.7067 17.4854 20.2022 17.7243C20.7767 18.0013 21.3917 18.6163 21.6874 18.9117L21.7003 18.9243C22.3782 19.5883 22.0768 20.3519 21.4084 21.0202Z" fill="#3D3D3D"/>
</svg>
