<svg width="14" height="7" viewBox="0 0 14 7" fill="none" xmlns="http://www.w3.org/2000/svg">
<g clip-path="url(#clip0)">
<path d="M0.00070102 1.16129C0.00019271 1.31069 0.033165 1.4583 0.0971938 1.59328C0.161223 1.72825 0.254682 1.84717 0.370702 1.94129L6.3707 6.77129C6.54963 6.91837 6.77408 6.99878 7.0057 6.99878C7.23733 6.99878 7.46177 6.91837 7.6407 6.77129L13.6407 1.77129C13.8449 1.60155 13.9733 1.35764 13.9977 1.09322C14.0221 0.828789 13.9404 0.565508 13.7707 0.361291C13.601 0.157075 13.3571 0.0286508 13.0926 0.00427102C12.8282 -0.0201087 12.5649 0.0615525 12.3607 0.231291L7.0007 4.70129L1.6407 0.381292C1.49392 0.259009 1.31518 0.181331 1.12563 0.157452C0.936078 0.133572 0.743653 0.164489 0.571126 0.246545C0.398599 0.328601 0.253187 0.458361 0.152097 0.620471C0.0510064 0.782582 -0.00153058 0.970258 0.00070102 1.16129Z" fill="#3D3D3D"/>
</g>
<defs>
<clipPath id="clip0">
<rect width="7" height="14" fill="white" transform="matrix(1.19249e-08 -1 -1 -1.19249e-08 14 7)"/>
</clipPath>
</defs>
</svg>
