<svg width="41" height="40" viewBox="0 0 41 40" fill="none" xmlns="http://www.w3.org/2000/svg">
<path d="M34.3314 15H19.3314C17.4904 15 15.998 16.4924 15.998 18.3333V33.3333C15.998 35.1743 17.4904 36.6667 19.3314 36.6667H34.3314C36.1723 36.6667 37.6647 35.1743 37.6647 33.3333V18.3333C37.6647 16.4924 36.1723 15 34.3314 15Z" stroke="url(#paint0_linear)" stroke-width="2" stroke-linecap="round" stroke-linejoin="round"/>
<path d="M9.33203 24.9999H7.66536C6.78131 24.9999 5.93346 24.6487 5.30834 24.0236C4.68322 23.3985 4.33203 22.5506 4.33203 21.6666V6.66659C4.33203 5.78253 4.68322 4.93468 5.30834 4.30956C5.93346 3.68444 6.78131 3.33325 7.66536 3.33325H22.6654C23.5494 3.33325 24.3973 3.68444 25.0224 4.30956C25.6475 4.93468 25.9987 5.78253 25.9987 6.66659V8.33325" stroke="url(#paint1_linear)" stroke-width="2" stroke-linecap="round" stroke-linejoin="round"/>
<defs>
<linearGradient id="paint0_linear" x1="15.998" y1="15" x2="40.1148" y2="18.6246" gradientUnits="userSpaceOnUse">
<stop stop-color="#FF416C"/>
<stop offset="1" stop-color="#FF4B2B"/>
</linearGradient>
<linearGradient id="paint1_linear" x1="4.33203" y1="3.33325" x2="28.4488" y2="6.95783" gradientUnits="userSpaceOnUse">
<stop stop-color="#FF416C"/>
<stop offset="1" stop-color="#FF4B2B"/>
</linearGradient>
</defs>
</svg>
