<svg width="41" height="40" viewBox="0 0 41 40" fill="none" xmlns="http://www.w3.org/2000/svg">
<path d="M32.6647 5H9.33138C7.49043 5 5.99805 6.49238 5.99805 8.33333V31.6667C5.99805 33.5076 7.49043 35 9.33138 35H32.6647C34.5057 35 35.998 33.5076 35.998 31.6667V8.33333C35.998 6.49238 34.5057 5 32.6647 5Z" stroke="url(#paint0_linear)" stroke-width="2" stroke-linecap="round" stroke-linejoin="round"/>
<path d="M15.1641 16.6667C16.5448 16.6667 17.6641 15.5475 17.6641 14.1667C17.6641 12.786 16.5448 11.6667 15.1641 11.6667C13.7834 11.6667 12.6641 12.786 12.6641 14.1667C12.6641 15.5475 13.7834 16.6667 15.1641 16.6667Z" stroke="url(#paint1_linear)" stroke-width="2" stroke-linecap="round" stroke-linejoin="round"/>
<path d="M35.9987 25.0001L27.6654 16.6667L9.33203 35.0001" stroke="url(#paint2_linear)" stroke-width="2" stroke-linecap="round" stroke-linejoin="round"/>
<defs>
<linearGradient id="paint0_linear" x1="5.99805" y1="5" x2="39.3905" y2="10.0186" gradientUnits="userSpaceOnUse">
<stop stop-color="#FF416C"/>
<stop offset="1" stop-color="#FF4B2B"/>
</linearGradient>
<linearGradient id="paint1_linear" x1="12.6641" y1="11.6667" x2="18.2295" y2="12.5032" gradientUnits="userSpaceOnUse">
<stop stop-color="#FF416C"/>
<stop offset="1" stop-color="#FF4B2B"/>
</linearGradient>
<linearGradient id="paint2_linear" x1="9.33203" y1="16.6667" x2="38.3003" y2="22.9994" gradientUnits="userSpaceOnUse">
<stop stop-color="#FF416C"/>
<stop offset="1" stop-color="#FF4B2B"/>
</linearGradient>
</defs>
</svg>
