<?xml version="1.0" standalone="no"?>
<!DOCTYPE svg PUBLIC "-//W3C//DTD SVG 20010904//EN"
 "http://www.w3.org/TR/2001/REC-SVG-20010904/DTD/svg10.dtd">
<svg version="1.0" xmlns="http://www.w3.org/2000/svg"
 width="303.000000pt" height="303.000000pt" viewBox="0 0 303.000000 303.000000"
 preserveAspectRatio="xMidYMid meet">
<metadata>
Created by potrace 1.11, written by Peter Selinger 2001-2013
</metadata>
<g transform="translate(0.000000,303.000000) scale(0.100000,-0.100000)"
fill="#000000" stroke="none">
<path d="M1379 3026 c-2 -2 -29 -6 -59 -10 -473 -52 -924 -369 -1148 -806 -78
-152 -117 -266 -153 -455 -23 -116 -17 -407 10 -535 25 -115 59 -225 97 -307
13 -30 24 -56 24 -58 0 -14 106 -184 154 -249 55 -72 159 -183 238 -253 57
-50 207 -148 283 -184 39 -19 72 -36 75 -39 15 -15 206 -77 293 -94 123 -26
182 -31 327 -31 163 1 224 7 358 40 435 105 808 410 1002 818 47 98 92 219
105 282 36 172 43 237 39 395 -1 91 -5 176 -8 190 -2 14 -7 41 -10 60 -15 82
-60 229 -98 319 -138 322 -387 590 -697 749 -224 115 -410 162 -667 168 -89 2
-163 2 -165 0z"/>
</g>
</svg>
