<svg width="184" height="184" viewBox="0 0 184 184" fill="none" xmlns="http://www.w3.org/2000/svg">
<g clip-path="url(#clip0_1723_42)">
<path d="M36.1184 64.6823C38.3304 65.7305 40.7305 66.3235 43.1762 66.426V70.4116C43.0469 70.7311 43.0469 71.0884 43.1762 71.408C43.4957 71.5372 43.853 71.5372 44.1726 71.408H47.743C48.0625 71.5372 48.4198 71.5372 48.7393 71.408C48.8686 71.0884 48.8686 70.7311 48.7393 70.4116V66.426C52.2595 66.2084 55.6252 64.9028 58.3711 62.6895C59.5684 61.6764 60.5141 60.3991 61.1337 58.9582C61.7533 57.5173 62.0298 55.9522 61.9415 54.3863C62.0268 52.4336 61.5359 50.4989 60.53 48.8231C59.4163 47.2537 57.8944 46.019 56.1292 45.2527C53.4639 44.0939 50.6795 43.2308 47.826 42.6787C46.2283 42.378 44.6483 41.9899 43.0931 41.5163C42.0242 41.1324 41.0582 40.5073 40.27 39.6895C39.6587 38.9734 39.3335 38.0568 39.3567 37.1155C39.2747 36.3224 39.4377 35.5232 39.8237 34.8255C40.2097 34.1278 40.8001 33.565 41.5155 33.213C43.0244 32.3408 44.7583 31.9362 46.4975 32.0505C48.0159 32.0359 49.5093 32.438 50.8152 33.213C51.3843 33.5382 51.8782 33.98 52.2646 34.5094C52.6509 35.0389 52.921 35.644 53.057 36.2852C53.1948 36.6041 53.4292 36.8718 53.7271 37.0505C54.025 37.2293 54.3714 37.3101 54.7177 37.2816H60.1148C60.4231 37.2816 60.7188 37.1591 60.9368 36.9411C61.1548 36.7231 61.2773 36.4274 61.2773 36.1191C61.1529 34.5765 60.6386 33.0908 59.7827 31.8015C58.7359 30.2123 57.3454 28.8786 55.7141 27.8989C53.8884 26.9078 51.885 26.287 49.8188 26.0722V22.0036C49.8466 21.8118 49.8293 21.6161 49.7682 21.4321C49.7072 21.2482 49.604 21.081 49.4669 20.9439C49.3298 20.8069 49.1627 20.7037 48.9787 20.6426C48.7947 20.5815 48.599 20.5642 48.4072 20.5921H44.5047C44.1851 20.4628 43.8278 20.4628 43.5083 20.5921C43.379 20.9116 43.379 21.2689 43.5083 21.5885V25.574C40.2445 25.8221 37.1524 27.1348 34.7069 29.3105C33.6648 30.2704 32.8376 31.4399 32.2795 32.7421C31.7215 34.0443 31.4451 35.4499 31.4686 36.8664C31.383 38.2832 31.6229 39.7007 32.1698 41.0104C32.7167 42.3201 33.5562 43.4872 34.6238 44.4224C37.5591 46.5555 40.9357 48.0026 44.5047 48.6571C47.2171 49.3767 49.2652 49.9856 50.6491 50.4838C51.8232 50.8514 52.9009 51.4753 53.8043 52.3105C54.1368 52.6491 54.3967 53.0521 54.568 53.4947C54.7393 53.9373 54.8185 54.4102 54.8007 54.8845C54.8112 55.6135 54.6332 56.3328 54.2841 56.9729C53.935 57.6129 53.4265 58.152 52.8079 58.5379C50.9835 59.5442 48.9085 60.0053 46.8296 59.8664C44.8861 59.9672 42.9547 59.5059 41.2664 58.5379C40.0288 57.803 39.0884 56.657 38.6094 55.2996C38.4241 54.9715 38.169 54.6881 37.8621 54.4693C37.5105 54.3606 37.1343 54.3606 36.7827 54.4693H31.3025C31.0091 54.3537 30.6826 54.3537 30.3892 54.4693C30.2869 54.7367 30.2869 55.0323 30.3892 55.2996C30.4706 57.0821 31.0455 58.8068 32.0498 60.2816C33.0104 62.0701 34.4106 63.5846 36.1184 64.6823V64.6823Z" fill="#2F8DBC"/>
<path d="M46.3321 92.6643C55.4958 92.6643 64.4536 89.947 72.0729 84.8559C79.6922 79.7649 85.6307 72.5288 89.1374 64.0627C92.6442 55.5966 93.5617 46.2808 91.774 37.2932C89.9863 28.3056 85.5736 20.0501 79.0939 13.5704C72.6142 7.09072 64.3586 2.67802 55.3711 0.89028C46.3835 -0.897456 37.0677 0.0200749 28.6016 3.52684C20.1355 7.03361 12.8994 12.9721 7.80837 20.5914C2.71733 28.2107 0 37.1685 0 46.3322C0.0219506 58.6135 4.91041 70.3855 13.5946 79.0697C22.2788 87.7539 34.0508 92.6423 46.3321 92.6643ZM46.3321 8.30327C53.83 8.31969 61.155 10.557 67.3824 14.7329C73.6098 18.9087 78.4605 24.8359 81.3223 31.7662C84.184 38.6965 84.9285 46.3192 83.4617 53.6723C81.9949 61.0253 78.3826 67.779 73.0808 73.0808C67.779 78.3826 61.0253 81.9949 53.6723 83.4617C46.3192 84.9285 38.6965 84.184 31.7662 81.3223C24.8359 78.4606 18.9087 73.6099 14.7329 67.3824C10.557 61.155 8.31967 53.83 8.30325 46.3322C8.2923 41.3351 9.26848 36.385 11.1757 31.7662C13.083 27.1474 15.8838 22.9508 19.4172 19.4173C22.9507 15.8838 27.1473 13.083 31.7662 11.1758C36.385 9.2685 41.335 8.29232 46.3321 8.30327V8.30327Z" fill="#2F8DBC"/>
<path d="M148.129 137.17C145.465 136.008 142.68 135.145 139.826 134.596C137.907 134.142 136.021 133.559 134.18 132.852C133.111 132.468 132.145 131.843 131.357 131.025C130.746 130.309 130.42 129.392 130.444 128.451C130.412 127.76 130.564 127.073 130.885 126.46C131.206 125.848 131.684 125.331 132.27 124.964C133.779 124.092 135.513 123.687 137.252 123.801C138.919 123.732 140.568 124.166 141.985 125.047C142.554 125.372 143.048 125.814 143.434 126.343C143.821 126.873 144.091 127.478 144.227 128.119C144.365 128.438 144.599 128.706 144.897 128.884C145.195 129.063 145.541 129.144 145.888 129.115H151.285C151.593 129.115 151.889 128.993 152.107 128.775C152.325 128.557 152.447 128.261 152.447 127.953C152.323 126.41 151.808 124.925 150.953 123.635C149.906 122.046 148.515 120.712 146.884 119.733C144.939 118.534 142.758 117.769 140.49 117.491V113.422C140.518 113.23 140.501 113.035 140.44 112.851C140.379 112.667 140.276 112.5 140.139 112.363C140.002 112.226 139.834 112.122 139.65 112.061C139.466 112 139.271 111.983 139.079 112.011H135.508C135.187 111.89 134.833 111.89 134.512 112.011C134.383 112.33 134.383 112.688 134.512 113.007V116.91C131.25 117.164 128.159 118.476 125.711 120.646C124.669 121.606 123.841 122.776 123.283 124.078C122.725 125.38 122.449 126.786 122.472 128.202C122.387 129.619 122.627 131.036 123.174 132.346C123.721 133.656 124.56 134.823 125.628 135.758C128.564 137.889 131.94 139.336 135.508 139.993C138.221 140.712 140.269 141.321 141.653 141.819C142.827 142.187 143.905 142.811 144.808 143.646C145.141 143.985 145.401 144.388 145.572 144.83C145.743 145.273 145.822 145.746 145.805 146.22C145.815 146.949 145.637 147.668 145.288 148.309C144.939 148.949 144.43 149.488 143.812 149.874C141.987 150.88 139.912 151.341 137.833 151.202C135.89 151.303 133.959 150.842 132.27 149.874C131.033 149.139 130.092 147.993 129.613 146.635C129.426 146.309 129.171 146.026 128.866 145.805C128.514 145.696 128.138 145.696 127.786 145.805H122.638C122.494 145.743 122.339 145.712 122.182 145.712C122.025 145.712 121.869 145.743 121.725 145.805C121.623 146.072 121.623 146.368 121.725 146.635C121.807 148.418 122.381 150.142 123.386 151.617C124.531 153.272 126.072 154.614 127.87 155.52C130.065 156.65 132.465 157.328 134.927 157.513V161.498C134.798 161.818 134.798 162.175 134.927 162.495C135.248 162.616 135.603 162.616 135.924 162.495H139.494C139.686 162.522 139.882 162.505 140.066 162.444C140.25 162.383 140.417 162.28 140.554 162.143C140.691 162.006 140.794 161.838 140.855 161.654C140.916 161.47 140.933 161.275 140.906 161.083V157.762C144.426 157.544 147.791 156.238 150.537 154.025C151.735 153.012 152.68 151.735 153.3 150.294C153.92 148.853 154.196 147.288 154.108 145.722C154.198 143.769 153.707 141.833 152.696 140.159C151.463 138.779 149.888 137.748 148.129 137.17V137.17Z" fill="#2F8DBC"/>
<path d="M137.75 91.3357C128.586 91.3357 119.629 94.053 112.009 99.1441C104.39 104.235 98.4516 111.471 94.9448 119.937C91.438 128.403 90.5205 137.719 92.3082 146.707C94.096 155.694 98.5087 163.95 104.988 170.43C111.468 176.909 119.724 181.322 128.711 183.11C137.699 184.897 147.015 183.98 155.481 180.473C163.947 176.966 171.183 171.028 176.274 163.409C181.365 155.789 184.082 146.831 184.082 137.668C184.082 131.583 182.884 125.559 180.555 119.937C178.227 114.316 174.814 109.208 170.512 104.906C166.21 100.604 161.102 97.1909 155.481 94.8625C149.859 92.5341 143.835 91.3357 137.75 91.3357V91.3357ZM137.75 175.614C130.245 175.614 122.909 173.388 116.669 169.219C110.428 165.049 105.565 159.123 102.693 152.189C99.8207 145.255 99.0692 137.626 100.533 130.265C101.998 122.904 105.612 116.143 110.918 110.836C116.225 105.529 122.986 101.915 130.347 100.451C137.708 98.9869 145.338 99.7384 152.271 102.61C159.205 105.482 165.131 110.346 169.301 116.586C173.47 122.826 175.696 130.163 175.696 137.668C175.696 142.651 174.714 147.585 172.808 152.189C170.901 156.793 168.105 160.976 164.582 164.5C161.058 168.023 156.875 170.818 152.271 172.725C147.668 174.632 142.733 175.614 137.75 175.614V175.614Z" fill="#2F8DBC"/>
<path d="M107.942 50.5667H169.469L158.758 61.444C158.041 62.2512 157.659 63.3021 157.691 64.3816C157.722 65.4611 158.165 66.4877 158.929 67.2514C159.693 68.015 160.719 68.4581 161.799 68.4898C162.878 68.5216 163.929 68.1397 164.736 67.4223L182.671 49.3212C183.047 48.9376 183.344 48.4832 183.543 47.9844C183.743 47.4856 183.842 46.9523 183.834 46.4151C183.933 45.8939 183.933 45.3587 183.834 44.8375C183.562 44.2594 183.165 43.7489 182.671 43.3429L164.653 24.9097C163.846 24.1923 162.795 23.8104 161.716 23.8422C160.636 23.8739 159.61 24.317 158.846 25.0806C158.082 25.8443 157.639 26.8709 157.607 27.9504C157.576 29.0299 157.958 30.0808 158.675 30.888L169.635 41.8483H107.942C107.328 41.7248 106.693 41.7392 106.085 41.8906C105.477 42.042 104.91 42.3266 104.425 42.7238C103.94 43.121 103.549 43.6209 103.281 44.1875C103.012 44.754 102.873 45.3731 102.873 45.9999C102.873 46.6268 103.012 47.2459 103.281 47.8124C103.549 48.379 103.94 48.8789 104.425 49.2761C104.91 49.6733 105.477 49.9578 106.085 50.1092C106.693 50.2606 107.328 50.2751 107.942 50.1516V50.5667Z" fill="#2F8DBC"/>
<path d="M75.8922 133.516H14.3651L24.9103 122.556C25.6046 121.784 25.991 120.784 25.9961 119.745C26.0012 118.707 25.6247 117.703 24.938 116.924C24.2514 116.145 23.3025 115.646 22.2717 115.521C21.2409 115.396 20.2001 115.653 19.3471 116.245L1.24601 134.762C0.857673 135.141 0.547371 135.592 0.332653 136.09C0.115702 136.602 0.00390625 137.153 0.00390625 137.709C0.00390625 138.266 0.115702 138.816 0.332653 139.329C0.522608 139.82 0.804399 140.271 1.16298 140.657V140.657L19.2641 158.758C19.5979 159.319 20.0568 159.794 20.6048 160.148C21.1528 160.502 21.7752 160.725 22.4234 160.799C23.0717 160.872 23.7281 160.795 24.3417 160.574C24.9552 160.352 25.5093 159.991 25.9605 159.52C26.4118 159.049 26.748 158.48 26.9431 157.857C27.1382 157.235 27.1868 156.576 27.0852 155.931C26.9835 155.287 26.7343 154.675 26.3571 154.142C25.9798 153.61 25.4847 153.172 24.9103 152.863L14.3651 141.903H75.8922C76.8513 141.71 77.714 141.191 78.3339 140.434C78.9537 139.677 79.2924 138.729 79.2924 137.751C79.2924 136.773 78.9537 135.825 78.3339 135.068C77.714 134.311 76.8513 133.792 75.8922 133.599V133.516Z" fill="#2F8DBC"/>
</g>
<defs>
<clipPath id="clip0_1723_42">
<rect width="184" height="184" fill="white"/>
</clipPath>
</defs>
</svg>
