<svg width="56" height="56" viewBox="0 0 56 56" fill="none" xmlns="http://www.w3.org/2000/svg">
<g clip-path="url(#clip0_1723_42)">
<path d="M10.9936 19.6858C11.6668 20.0049 12.3973 20.1853 13.1416 20.2165V21.4295C13.1022 21.5268 13.1022 21.6355 13.1416 21.7328C13.2388 21.7721 13.3476 21.7721 13.4448 21.7328H14.5315C14.6287 21.7721 14.7375 21.7721 14.8347 21.7328C14.8741 21.6355 14.8741 21.5268 14.8347 21.4295V20.2165C15.9061 20.1503 16.9304 19.7529 17.7661 19.0793C18.1305 18.771 18.4184 18.3822 18.6069 17.9437C18.7955 17.5052 18.8797 17.0288 18.8528 16.5523C18.8787 15.958 18.7293 15.3691 18.4232 14.8591C18.0842 14.3815 17.6211 14.0057 17.0838 13.7725C16.2726 13.4198 15.4252 13.1571 14.5568 12.9891C14.0705 12.8975 13.5896 12.7794 13.1163 12.6353C12.791 12.5185 12.497 12.3282 12.2571 12.0793C12.0711 11.8614 11.9721 11.5824 11.9791 11.2959C11.9542 11.0545 12.0038 10.8113 12.1213 10.599C12.2387 10.3866 12.4184 10.2154 12.6362 10.1082C13.0954 9.84276 13.6231 9.71962 14.1524 9.75442C14.6146 9.74997 15.0691 9.87234 15.4665 10.1082C15.6397 10.2072 15.79 10.3416 15.9076 10.5028C16.0252 10.6639 16.1074 10.8481 16.1488 11.0432C16.1907 11.1403 16.2621 11.2218 16.3527 11.2762C16.4434 11.3306 16.5488 11.3551 16.6542 11.3465H18.2968C18.3907 11.3465 18.4806 11.3092 18.547 11.2429C18.6133 11.1765 18.6506 11.0865 18.6506 10.9927C18.6128 10.5232 18.4562 10.071 18.1957 9.67861C17.8772 9.19496 17.454 8.78905 16.9575 8.49088C16.4018 8.18924 15.7921 8.00031 15.1633 7.93493V6.69666C15.1717 6.63827 15.1665 6.57872 15.1479 6.52273C15.1293 6.46674 15.0979 6.41586 15.0562 6.37414C15.0144 6.33243 14.9636 6.30103 14.9076 6.28243C14.8516 6.26384 14.792 6.25858 14.7336 6.26706H13.5459C13.4487 6.22771 13.3399 6.22771 13.2427 6.26706C13.2033 6.36431 13.2033 6.47305 13.2427 6.5703V7.7833C12.2493 7.85881 11.3083 8.25832 10.564 8.92048C10.2468 9.21264 9.99508 9.56856 9.82523 9.96489C9.65537 10.3612 9.57126 10.789 9.57841 11.2201C9.55238 11.6513 9.62539 12.0827 9.79184 12.4813C9.95829 12.8799 10.2138 13.2351 10.5387 13.5198C11.432 14.169 12.4597 14.6094 13.5459 14.8086C14.3714 15.0276 14.9948 15.2129 15.416 15.3645C15.7733 15.4764 16.1013 15.6663 16.3762 15.9205C16.4774 16.0236 16.5565 16.1462 16.6087 16.2809C16.6608 16.4156 16.6849 16.5595 16.6795 16.7039C16.6827 16.9257 16.6285 17.1447 16.5223 17.3395C16.416 17.5343 16.2613 17.6983 16.073 17.8158C15.5177 18.122 14.8862 18.2624 14.2535 18.2201C13.662 18.2508 13.0742 18.1104 12.5604 17.8158C12.1837 17.5921 11.8975 17.2433 11.7517 16.8302C11.6953 16.7304 11.6177 16.6441 11.5243 16.5775C11.4173 16.5444 11.3027 16.5444 11.1957 16.5775H9.52787C9.43856 16.5423 9.33921 16.5423 9.2499 16.5775C9.21878 16.6589 9.21878 16.7489 9.2499 16.8302C9.27467 17.3727 9.44965 17.8976 9.75531 18.3465C10.0477 18.8908 10.4738 19.3517 10.9936 19.6858V19.6858Z" fill="#2F8DBC"/>
<path d="M14.1011 28.2022C16.89 28.2022 19.6163 27.3752 21.9352 25.8257C24.2541 24.2763 26.0615 22.074 27.1288 19.4973C28.1961 16.9207 28.4753 14.0854 27.9312 11.3501C27.3871 8.61476 26.0441 6.10219 24.0721 4.13012C22.1 2.15805 19.5874 0.815048 16.8521 0.270955C14.1167 -0.273139 11.2815 0.00610974 8.70483 1.07339C6.1282 2.14066 3.92591 3.94804 2.37646 6.26695C0.827014 8.58586 0 11.3122 0 14.1011C0.0066806 17.8389 1.49447 21.4217 4.13749 24.0647C6.78051 26.7077 10.3633 28.1955 14.1011 28.2022ZM14.1011 2.52708C16.383 2.53208 18.6124 3.21301 20.5077 4.48392C22.403 5.75483 23.8793 7.55875 24.7503 9.66797C25.6212 11.7772 25.8478 14.0972 25.4014 16.335C24.955 18.5729 23.8556 20.6284 22.242 22.242C20.6284 23.8556 18.5729 24.955 16.335 25.4014C14.0972 25.8478 11.7772 25.6212 9.66796 24.7503C7.55874 23.8793 5.75483 22.403 4.48392 20.5077C3.21301 18.6124 2.53207 16.3831 2.52708 14.1011C2.52374 12.5802 2.82084 11.0737 3.40131 9.66797C3.98178 8.26224 4.83418 6.98501 5.90959 5.9096C6.985 4.83419 8.26224 3.98178 9.66796 3.40132C11.0737 2.82085 12.5802 2.52375 14.1011 2.52708V2.52708Z" fill="#2F8DBC"/>
<path d="M45.0829 41.7472C44.272 41.3937 43.4244 41.131 42.5558 40.9638C41.9717 40.8257 41.3976 40.6484 40.8374 40.4331C40.5121 40.3163 40.2181 40.126 39.9782 39.8772C39.7921 39.6592 39.6931 39.3802 39.7002 39.0938C39.6905 38.8834 39.7368 38.6743 39.8345 38.4878C39.9322 38.3013 40.0777 38.1441 40.2562 38.0324C40.7154 37.7669 41.2431 37.6438 41.7724 37.6786C42.2797 37.6574 42.7817 37.7895 43.2128 38.0577C43.386 38.1566 43.5364 38.2911 43.654 38.4522C43.7715 38.6134 43.8537 38.7975 43.8951 38.9927C43.9371 39.0897 44.0084 39.1712 44.0991 39.2256C44.1897 39.28 44.2952 39.3046 44.4006 39.2959H46.0432C46.137 39.2959 46.227 39.2586 46.2933 39.1923C46.3597 39.126 46.397 39.036 46.397 38.9421C46.3591 38.4726 46.2026 38.0205 45.9421 37.6281C45.6235 37.1444 45.2003 36.7385 44.7038 36.4403C44.1119 36.0754 43.4482 35.8426 42.758 35.758V34.5197C42.7664 34.4614 42.7612 34.4018 42.7426 34.3458C42.724 34.2898 42.6926 34.239 42.6509 34.1972C42.6092 34.1555 42.5583 34.1241 42.5023 34.1055C42.4463 34.0869 42.3867 34.0817 42.3284 34.0901H41.2417C41.144 34.0533 41.0362 34.0533 40.9385 34.0901C40.8991 34.1874 40.8991 34.2961 40.9385 34.3934V35.5811C39.9456 35.6585 39.0051 36.0577 38.2598 36.7183C37.9426 37.0105 37.6909 37.3664 37.521 37.7627C37.3512 38.159 37.2671 38.5868 37.2742 39.0179C37.2482 39.4491 37.3212 39.8805 37.4876 40.2791C37.6541 40.6777 37.9096 41.033 38.2345 41.3176C39.1283 41.9661 40.1557 42.4064 41.2417 42.6064C42.0672 42.8254 42.6906 43.0107 43.1118 43.1623C43.4691 43.2742 43.7971 43.4641 44.072 43.7183C44.1732 43.8214 44.2523 43.944 44.3045 44.0787C44.3566 44.2134 44.3807 44.3574 44.3753 44.5017C44.3785 44.7236 44.3243 44.9425 44.2181 45.1373C44.1118 45.3321 43.9571 45.4962 43.7688 45.6136C43.2135 45.9199 42.582 46.0602 41.9493 46.0179C41.3578 46.0486 40.77 45.9082 40.2562 45.6136C39.8795 45.3899 39.5933 45.0411 39.4475 44.6281C39.3904 44.5287 39.3129 44.4425 39.2201 44.3753C39.1131 44.3423 38.9985 44.3423 38.8915 44.3753H37.3247C37.2808 44.3566 37.2335 44.3469 37.1858 44.3469C37.138 44.3469 37.0907 44.3566 37.0468 44.3753C37.0157 44.4567 37.0157 44.5467 37.0468 44.6281C37.0715 45.1705 37.2465 45.6955 37.5522 46.1443C37.9006 46.648 38.3698 47.0564 38.9168 47.332C39.585 47.676 40.3154 47.8823 41.0648 47.9385V49.1515C41.0255 49.2488 41.0255 49.3575 41.0648 49.4548C41.1625 49.4916 41.2704 49.4916 41.3681 49.4548H42.4547C42.5131 49.4632 42.5727 49.458 42.6286 49.4394C42.6846 49.4208 42.7355 49.3894 42.7772 49.3477C42.8189 49.306 42.8503 49.2551 42.8689 49.1991C42.8875 49.1431 42.8928 49.0835 42.8843 49.0252V48.0143C43.9557 47.9481 44.98 47.5507 45.8157 46.8771C46.1801 46.5688 46.4679 46.1801 46.6565 45.7415C46.8451 45.303 46.9292 44.8267 46.9024 44.3501C46.9298 43.7556 46.7803 43.1664 46.4728 42.6569C46.0973 42.237 45.618 41.9232 45.0829 41.7472V41.7472Z" fill="#2F8DBC"/>
<path d="M41.9234 27.7979C39.1344 27.7979 36.4081 28.6249 34.0892 30.1743C31.7703 31.7238 29.9629 33.926 28.8957 36.5027C27.8284 39.0793 27.5491 41.9146 28.0932 44.6499C28.6373 47.3853 29.9803 49.8978 31.9524 51.8699C33.9245 53.842 36.437 55.185 39.1724 55.7291C41.9077 56.2732 44.743 55.9939 47.3196 54.9266C49.8962 53.8594 52.0985 52.052 53.648 49.7331C55.1974 47.4142 56.0244 44.6879 56.0244 41.8989C56.0244 40.0472 55.6597 38.2135 54.9511 36.5027C54.2424 34.7919 53.2037 33.2374 51.8943 31.928C50.5849 30.6186 49.0304 29.5799 47.3196 28.8712C45.6088 28.1626 43.7751 27.7979 41.9234 27.7979V27.7979ZM41.9234 53.4477C39.6392 53.4477 37.4064 52.7703 35.5072 51.5014C33.608 50.2324 32.1278 48.4287 31.2537 46.3184C30.3796 44.2082 30.1509 41.8861 30.5965 39.6459C31.0421 37.4057 32.142 35.3479 33.7572 33.7327C35.3723 32.1176 37.4301 31.0177 39.6703 30.5721C41.9105 30.1265 44.2326 30.3552 46.3429 31.2293C48.4531 32.1034 50.2568 33.5836 51.5258 35.4828C52.7948 37.382 53.4721 39.6148 53.4721 41.8989C53.4721 43.4155 53.1734 44.9173 52.593 46.3184C52.0126 47.7196 51.1619 48.9927 50.0895 50.0651C49.0171 51.1375 47.744 51.9882 46.3429 52.5686C44.9417 53.149 43.44 53.4477 41.9234 53.4477V53.4477Z" fill="#2F8DBC"/>
<path d="M32.8514 15.39H51.577L48.3171 18.7004C48.0987 18.9461 47.9825 19.266 47.9922 19.5945C48.0018 19.9231 48.1367 20.2355 48.3691 20.4679C48.6015 20.7003 48.914 20.8352 49.2425 20.8448C49.5711 20.8545 49.8909 20.7383 50.1366 20.5199L55.5951 15.0109C55.7095 14.8941 55.7997 14.7559 55.8604 14.6041C55.9211 14.4523 55.9512 14.2899 55.9488 14.1264C55.9789 13.9678 55.9789 13.8049 55.9488 13.6463C55.866 13.4704 55.7452 13.315 55.5951 13.1914L50.1113 7.58131C49.8656 7.36297 49.5458 7.24675 49.2172 7.25642C48.8887 7.26609 48.5762 7.40092 48.3438 7.63334C48.1114 7.86576 47.9766 8.1782 47.9669 8.50675C47.9572 8.83529 48.0735 9.15512 48.2918 9.40081L51.6275 12.7365H32.8514C32.6643 12.699 32.4713 12.7034 32.2861 12.7494C32.101 12.7955 31.9284 12.8821 31.7808 13.003C31.6332 13.1239 31.5143 13.276 31.4326 13.4485C31.3509 13.6209 31.3086 13.8093 31.3086 14.0001C31.3086 14.1909 31.3509 14.3793 31.4326 14.5517C31.5143 14.7241 31.6332 14.8763 31.7808 14.9972C31.9284 15.1181 32.101 15.2047 32.2861 15.2507C32.4713 15.2968 32.6643 15.3012 32.8514 15.2636V15.39Z" fill="#2F8DBC"/>
<path d="M23.0984 40.6355H4.37276L7.58215 37.2998C7.79346 37.0648 7.91107 36.7604 7.91263 36.4443C7.91419 36.1283 7.79958 35.8228 7.5906 35.5857C7.38162 35.3486 7.09283 35.1966 6.77912 35.1586C6.4654 35.1205 6.14863 35.199 5.88901 35.3792L0.379985 41.0146C0.261795 41.1299 0.167355 41.2672 0.102007 41.4189C0.0359779 41.5748 0.00195313 41.7424 0.00195312 41.9117C0.00195313 42.081 0.0359779 42.2486 0.102007 42.4045C0.159819 42.554 0.245581 42.6913 0.354714 42.8088V42.8088L5.86374 48.3178C5.96535 48.4884 6.105 48.6332 6.27179 48.7409C6.43858 48.8486 6.62801 48.9164 6.82529 48.9388C7.02257 48.9613 7.22237 48.9378 7.40911 48.8703C7.59584 48.8029 7.76445 48.6931 7.90179 48.5497C8.03913 48.4063 8.14148 48.2331 8.20085 48.0437C8.26022 47.8542 8.27502 47.6536 8.24408 47.4574C8.21314 47.2613 8.1373 47.075 8.02248 46.913C7.90766 46.751 7.75696 46.6177 7.58215 46.5236L4.37276 43.1878H23.0984C23.3903 43.1292 23.6529 42.9713 23.8415 42.7409C24.0302 42.5106 24.1332 42.222 24.1332 41.9243C24.1332 41.6266 24.0302 41.338 23.8415 41.1077C23.6529 40.8774 23.3903 40.7194 23.0984 40.6608V40.6355Z" fill="#2F8DBC"/>
</g>
<defs>
<clipPath id="clip0_1723_42">
<rect width="56" height="56" fill="white"/>
</clipPath>
</defs>
</svg>
