<svg width="25" height="25" viewBox="0 0 25 25" fill="none" xmlns="http://www.w3.org/2000/svg">
<path d="M17.8151 24.7516C16.8813 24.7447 15.9516 24.6275 15.0452 24.4024C11.9154 23.6472 8.6924 21.7316 5.97146 19.0083C3.25053 16.2849 1.3325 13.0614 0.577345 9.93449C-0.217803 6.64525 0.349307 3.83119 2.17242 2.00808L2.69297 1.48753C3.16526 1.01618 3.80525 0.751465 4.4725 0.751465C5.13975 0.751465 5.77974 1.01618 6.25203 1.48753L9.24339 4.47829C9.71503 4.95043 9.97995 5.59048 9.97995 6.25782C9.97995 6.92517 9.71503 7.56522 9.24339 8.03736L7.4764 9.80376C8.32348 11.2902 9.47561 12.7778 10.8373 14.1395C12.1989 15.5011 13.6878 16.6539 15.1736 17.5009L16.94 15.7339C17.1736 15.5002 17.4511 15.3148 17.7564 15.1883C18.0617 15.0618 18.389 14.9967 18.7195 14.9967C19.05 14.9967 19.3773 15.0618 19.6826 15.1883C19.988 15.3148 20.2654 15.5002 20.499 15.7339L23.4898 18.7247C23.9616 19.1967 24.2266 19.8366 24.2266 20.5039C24.2266 21.1712 23.9616 21.8112 23.4898 22.2832L22.9687 22.8037C21.6834 24.0914 19.9045 24.7516 17.8151 24.7516ZM4.4725 2.54116C4.37719 2.54069 4.28274 2.55924 4.19469 2.59573C4.10663 2.63222 4.02675 2.68592 3.95971 2.75368L3.43857 3.27423C2.07332 4.63947 1.67456 6.85598 2.31569 9.51185C2.99443 12.3253 4.74173 15.2486 7.23522 17.7415C9.72872 20.2344 12.6514 21.9799 15.4655 22.6611C18.122 23.3022 20.3373 22.9034 21.7025 21.5382L22.2231 21.0176C22.3591 20.8815 22.4355 20.697 22.4355 20.5045C22.4355 20.3121 22.3591 20.1276 22.2231 19.9915L19.2329 17.0007C19.0968 16.8647 18.9122 16.7883 18.7198 16.7883C18.5274 16.7883 18.3428 16.8647 18.2067 17.0007L15.9675 19.2399C15.8332 19.3743 15.6595 19.4625 15.4717 19.4917C15.2839 19.5209 15.0917 19.4896 14.9229 19.4023C13.0872 18.4531 11.2366 17.0711 9.57113 15.4056C7.90561 13.7401 6.52664 11.8907 5.57508 10.0551C5.4877 9.88632 5.45628 9.69413 5.48536 9.50632C5.51444 9.31851 5.60252 9.14483 5.73686 9.0104L7.97665 6.77121C8.11266 6.63509 8.18906 6.45054 8.18906 6.25812C8.18906 6.0657 8.11266 5.88115 7.97665 5.74504L4.98589 2.75368C4.91864 2.68604 4.83863 2.63242 4.7505 2.59594C4.66237 2.55946 4.56788 2.54084 4.4725 2.54116Z" fill="white"/>
<path d="M18.7714 13.9867C18.5339 13.9867 18.3061 13.8924 18.1382 13.7245C17.9703 13.5565 17.8759 13.3288 17.8759 13.0913C17.8742 11.5204 17.2494 10.0144 16.1387 8.90352C15.028 7.79268 13.522 7.16777 11.9511 7.16588C11.7136 7.16588 11.4859 7.07154 11.3179 6.90361C11.15 6.73568 11.0557 6.50792 11.0557 6.27044C11.0557 6.03295 11.15 5.8052 11.3179 5.63727C11.4859 5.46934 11.7136 5.375 11.9511 5.375C16.2056 5.375 19.6668 8.83736 19.6668 13.0913C19.6668 13.3288 19.5725 13.5565 19.4045 13.7245C19.2366 13.8924 19.0088 13.9867 18.7714 13.9867Z" fill="white"/>
<path d="M22.5561 13.9868C22.3186 13.9868 22.0908 13.8924 21.9229 13.7245C21.755 13.5566 21.6606 13.3288 21.6606 13.0913C21.6606 7.73722 17.3028 3.38121 11.9511 3.38121C11.7136 3.38121 11.4859 3.28687 11.3179 3.11894C11.15 2.95101 11.0557 2.72325 11.0557 2.48577C11.0557 2.24829 11.15 2.02053 11.3179 1.8526C11.4859 1.68467 11.7136 1.59033 11.9511 1.59033C18.2926 1.59033 23.4515 6.74985 23.4515 13.0913C23.4515 13.3288 23.3572 13.5566 23.1892 13.7245C23.0213 13.8924 22.7936 13.9868 22.5561 13.9868Z" fill="white"/>
</svg>
