<svg width="69" height="63" viewBox="0 0 69 63" fill="none" xmlns="http://www.w3.org/2000/svg">
<path d="M66.9418 13.7514L42.8793 0.517069C42.524 0.321686 42.1252 0.219238 41.7197 0.219238C41.3143 0.219238 40.9154 0.321686 40.5601 0.517069L16.4976 13.7514C16.1204 13.9592 15.8058 14.2643 15.5867 14.6351C15.3675 15.0059 15.252 15.4286 15.252 15.8593C15.252 16.29 15.3675 16.7128 15.5867 17.0835C15.8058 17.4543 16.1204 17.7595 16.4976 17.9672L39.3135 30.5165V56.305L32.0076 52.2883L29.6885 56.5038L40.5601 62.4828C40.9153 62.6785 41.3142 62.7812 41.7197 62.7812C42.1252 62.7812 42.5241 62.6785 42.8793 62.4828L66.9418 49.2484C67.3192 49.0409 67.634 48.7357 67.8533 48.365C68.0726 47.9942 68.1884 47.5713 68.1885 47.1406V15.8593C68.1884 15.4285 68.0726 15.0057 67.8533 14.6349C67.634 14.2641 67.3192 13.959 66.9418 13.7514ZM41.7197 5.37192L60.7888 15.8593L41.7197 26.3467L22.6507 15.8593L41.7197 5.37192ZM63.376 45.7178L44.126 56.3053V30.5165L63.376 19.929V45.7178Z" fill="#2F8DBC"/>
<path d="M0.8125 31.5L20.0625 31.5V26.6875L0.8125 26.6875V31.5Z" fill="#2F8DBC"/>
<path d="M5.625 50.75H24.875V45.9375H5.625V50.75Z" fill="#2F8DBC"/>
<path d="M10.4375 41.125H29.6875V36.3125H10.4375V41.125Z" fill="#2F8DBC"/>
</svg>
