<svg width="63" height="63" viewBox="0 0 63 63" fill="none" xmlns="http://www.w3.org/2000/svg">
<path fill-rule="evenodd" clip-rule="evenodd" d="M20.6179 14.7149C21.2931 15.3902 21.2931 16.4851 20.6179 17.1603L12.4785 25.2997L7.79748 20.6186C7.12219 19.9434 7.12219 18.8485 7.79748 18.1733C8.47272 17.498 9.56763 17.498 10.2429 18.1733L12.4785 20.4089L18.1725 14.7149C18.8477 14.0397 19.9426 14.0397 20.6179 14.7149Z" fill="#2F8DBC"/>
<path fill-rule="evenodd" clip-rule="evenodd" d="M52.25 17.6667C52.25 14.8017 54.5724 12.4792 57.4375 12.4792C60.3026 12.4792 62.625 14.8017 62.625 17.6667V52.7737L57.4375 60.5549L52.25 52.7737V17.6667ZM57.4375 15.9376C56.4825 15.9376 55.7083 16.7117 55.7083 17.6667V51.7265L57.4375 54.3202L59.1667 51.7265V17.6667C59.1667 16.7117 58.3925 15.9376 57.4375 15.9376Z" fill="#2F8DBC"/>
<path fill-rule="evenodd" clip-rule="evenodd" d="M60.8952 24.5833H53.9785V21.125H60.8952V24.5833Z" fill="#2F8DBC"/>
<path fill-rule="evenodd" clip-rule="evenodd" d="M7.29167 3.83333C5.38168 3.83333 3.83333 5.38168 3.83333 7.29167V55.7069C3.83333 57.617 5.38168 59.1653 7.29167 59.1653H41.875C43.785 59.1653 45.3333 57.617 45.3333 55.7069V7.29167C45.3333 5.38168 43.785 3.83333 41.875 3.83333H7.29167ZM0.375 7.29167C0.375 3.4717 3.4717 0.375 7.29167 0.375H41.875C45.6949 0.375 48.7917 3.4717 48.7917 7.29167V55.7069C48.7917 59.527 45.6949 62.6236 41.875 62.6236H7.29167C3.4717 62.6236 0.375 59.527 0.375 55.7069V7.29167Z" fill="#2F8DBC"/>
<path fill-rule="evenodd" clip-rule="evenodd" d="M24.584 15.9374C24.584 14.9824 25.3581 14.2083 26.3132 14.2083H40.1465C41.1015 14.2083 41.8757 14.9824 41.8757 15.9374C41.8757 16.8924 41.1015 17.6666 40.1465 17.6666H26.3132C25.3581 17.6666 24.584 16.8924 24.584 15.9374Z" fill="#2F8DBC"/>
<path fill-rule="evenodd" clip-rule="evenodd" d="M24.584 22.8542C24.584 21.8991 25.3581 21.125 26.3132 21.125H40.1465C41.1015 21.125 41.8757 21.8991 41.8757 22.8542C41.8757 23.8092 41.1015 24.5833 40.1465 24.5833H26.3132C25.3581 24.5833 24.584 23.8092 24.584 22.8542Z" fill="#2F8DBC"/>
<path fill-rule="evenodd" clip-rule="evenodd" d="M24.584 38.4167C24.584 37.4616 25.3581 36.6875 26.3132 36.6875H40.1465C41.1015 36.6875 41.8757 37.4616 41.8757 38.4167C41.8757 39.3717 41.1015 40.1458 40.1465 40.1458H26.3132C25.3581 40.1458 24.584 39.3717 24.584 38.4167Z" fill="#2F8DBC"/>
<path fill-rule="evenodd" clip-rule="evenodd" d="M24.584 45.3334C24.584 44.3784 25.3581 43.6042 26.3132 43.6042H40.1465C41.1015 43.6042 41.8757 44.3784 41.8757 45.3334C41.8757 46.2884 41.1015 47.0626 40.1465 47.0626H26.3132C25.3581 47.0626 24.584 46.2884 24.584 45.3334Z" fill="#2F8DBC"/>
<path fill-rule="evenodd" clip-rule="evenodd" d="M10.7493 38.4166V43.6041H15.9368V38.4166H10.7493ZM9.02018 34.9583H17.666C18.621 34.9583 19.3952 35.7324 19.3952 36.6874V45.3333C19.3952 46.2883 18.621 47.0624 17.666 47.0624H9.02018C8.06516 47.0624 7.29102 46.2883 7.29102 45.3333V36.6874C7.29102 35.7324 8.06516 34.9583 9.02018 34.9583Z" fill="#2F8DBC"/>
</svg>
