<svg width="65" height="65" viewBox="0 0 65 65" fill="none" xmlns="http://www.w3.org/2000/svg">
<g clip-path="url(#clip0_3521_5523)">
<path d="M42.9889 16.3511C37.6969 12.8226 31.5315 11.8336 26.0752 13.637C20.5385 15.4669 16.2891 19.8204 14.1093 25.8957C12.0912 31.5229 12.1077 38.0362 14.1567 44.2359C15.5891 48.5697 17.9125 52.4315 20.8792 55.4974C21.207 55.8347 21.6537 56.0304 22.1239 56.0426C22.594 56.0549 23.0503 55.8828 23.3952 55.5631L28.3338 50.9878C28.5092 50.8272 28.6507 50.6331 28.7499 50.417C28.849 50.2009 28.9039 49.9671 28.9113 49.7294C28.9187 49.4917 28.8784 49.2549 28.7928 49.0331C28.7072 48.8112 28.578 48.6087 28.4129 48.4376C26.4726 46.4616 24.9056 43.8699 23.9561 40.9971C22.6459 37.033 22.5982 32.7987 23.8243 29.3805C24.9078 26.3595 26.8573 24.2484 29.3141 23.4364C31.7701 22.6247 34.593 23.158 37.2636 24.9387C40.2852 26.953 42.7702 30.3816 44.0804 34.3458C45.0299 37.2186 45.3164 40.2335 44.9353 42.9767C44.9048 43.2125 44.9218 43.4521 44.9853 43.6812C45.0488 43.9104 45.1575 44.1245 45.305 44.311C45.4526 44.4974 45.636 44.6525 45.8444 44.767C46.0528 44.8814 46.2821 44.953 46.5186 44.9775L53.211 45.7086C53.6785 45.7598 54.1475 45.6261 54.5177 45.3361C54.888 45.046 55.1301 44.6227 55.1924 44.1565C55.748 39.9264 55.3117 35.4409 53.8793 31.1071C51.8302 24.9074 47.9628 19.6669 42.9889 16.3511ZM17.2252 35.2731C17.6344 35.1378 18.0745 35.127 18.4899 35.2418C18.9052 35.3567 19.2772 35.5922 19.5587 35.9185C19.8403 36.2448 20.0187 36.6472 20.0715 37.0749C20.1243 37.5026 20.0491 37.9364 19.8554 38.3214C19.6617 38.7063 19.3582 39.0252 18.9833 39.2377C18.6083 39.4501 18.1788 39.5467 17.749 39.515C17.3192 39.4834 16.9085 39.325 16.5687 39.0599C16.2289 38.7948 15.9754 38.4349 15.8401 38.0257C15.6588 37.477 15.7029 36.8788 15.9626 36.3626C16.2224 35.8464 16.6765 35.4545 17.2252 35.2731ZM22.3104 50.1842C21.9012 50.3194 21.4611 50.3303 21.0457 50.2154C20.6304 50.1005 20.2584 49.8651 19.9769 49.5388C19.6953 49.2125 19.5169 48.8101 19.4641 48.3824C19.4113 47.9546 19.4865 47.5209 19.6802 47.1359C19.8739 46.751 20.1774 46.4321 20.5523 46.2196C20.9273 46.0071 21.3568 45.9106 21.7866 45.9423C22.2164 45.9739 22.6271 46.1323 22.9669 46.3974C23.3067 46.6625 23.5602 47.0223 23.6955 47.4315C23.7853 47.7032 23.8207 47.9899 23.7997 48.2753C23.7787 48.5607 23.7017 48.8391 23.5731 49.0948C23.4445 49.3504 23.2667 49.5781 23.0501 49.7651C22.8334 49.952 22.5821 50.0944 22.3104 50.1842ZM20.2623 28.2089C19.8531 28.3441 19.413 28.355 18.9977 28.2401C18.5823 28.1252 18.2103 27.8898 17.9288 27.5635C17.6473 27.2372 17.4688 26.8348 17.416 26.407C17.3632 25.9793 17.4384 25.5456 17.6321 25.1606C17.8258 24.7756 18.1293 24.4568 18.5043 24.2443C18.8792 24.0318 19.3087 23.9353 19.7385 23.9669C20.1683 23.9986 20.5791 24.157 20.9188 24.4221C21.2586 24.6871 21.5122 25.047 21.6474 25.4562C21.8287 26.0049 21.7847 26.6032 21.5249 27.1194C21.2652 27.6356 20.811 28.0275 20.2623 28.2089L20.2623 28.2089ZM28.3768 20.6033C27.9676 20.7385 27.5275 20.7494 27.1121 20.6345C26.6967 20.5196 26.3248 20.2841 26.0432 19.9579C25.7617 19.6316 25.5833 19.2291 25.5304 18.8014C25.4776 18.3737 25.5528 17.94 25.7465 17.555C25.9402 17.17 26.2438 16.8511 26.6187 16.6387C26.9936 16.4262 27.4232 16.3297 27.853 16.3613C28.2827 16.393 28.6935 16.5513 29.0333 16.8164C29.3731 17.0815 29.6266 17.4414 29.7619 17.8506C29.9431 18.3993 29.8991 18.9976 29.6393 19.5138C29.3796 20.03 28.9254 20.4219 28.3768 20.6033ZM39.4258 21.8751C39.0166 22.0104 38.5765 22.0212 38.1611 21.9064C37.7457 21.7915 37.3738 21.556 37.0922 21.2297C36.8107 20.9034 36.6322 20.501 36.5794 20.0733C36.5266 19.6456 36.6018 19.2118 36.7955 18.8268C36.9892 18.4419 37.2928 18.123 37.6677 17.9105C38.0426 17.6981 38.4722 17.6015 38.902 17.6332C39.3317 17.6648 39.7425 17.8232 40.0823 18.0883C40.4221 18.3534 40.6756 18.7133 40.8108 19.1225C40.9007 19.3942 40.9361 19.6809 40.9151 19.9663C40.8941 20.2516 40.8171 20.5301 40.6885 20.7857C40.5598 21.0413 40.3821 21.2691 40.1655 21.456C39.9488 21.6429 39.6975 21.7854 39.4258 21.8751ZM50.8767 40.7427C50.4675 40.8779 50.0274 40.8888 49.6121 40.7739C49.1967 40.659 48.8248 40.4235 48.5432 40.0973C48.2617 39.771 48.0832 39.3685 48.0304 38.9408C47.9776 38.5131 48.0528 38.0794 48.2465 37.6944C48.4402 37.3094 48.7437 36.9905 49.1187 36.7781C49.4936 36.5656 49.9231 36.4691 50.3529 36.5007C50.7827 36.5324 51.1935 36.6907 51.5333 36.9558C51.873 37.2209 52.1266 37.5808 52.2618 37.99C52.4431 38.5387 52.3991 39.137 52.1393 39.6532C51.8796 40.1694 51.4254 40.5613 50.8767 40.7427L50.8767 40.7427ZM47.442 29.8758C47.0328 30.0111 46.5927 30.0219 46.1773 29.907C45.762 29.7922 45.39 29.5567 45.1085 29.2304C44.8269 28.9041 44.6485 28.5017 44.5957 28.074C44.5428 27.6463 44.6181 27.2125 44.8118 26.8275C45.0055 26.4426 45.309 26.1237 45.6839 25.9112C46.0589 25.6987 46.4884 25.6022 46.9182 25.6339C47.348 25.6655 47.7587 25.8239 48.0985 26.089C48.4383 26.3541 48.6918 26.714 48.8271 27.1231C49.0084 27.6718 48.9643 28.2701 48.7045 28.7863C48.4448 29.3025 47.9906 29.6944 47.442 29.8758L47.442 29.8758Z" fill="#0C4E42"/>
</g>
<defs>
<clipPath id="clip0_3521_5523">
<rect width="51" height="51" fill="white" transform="translate(0 16.0044) rotate(-18.2893)"/>
</clipPath>
</defs>
</svg>
