<svg width="53" height="51" viewBox="0 0 53 51" fill="none" xmlns="http://www.w3.org/2000/svg">
<path d="M36.9889 9.35108C31.6969 5.82261 25.5315 4.83362 20.0752 6.637C14.5385 8.46694 10.2891 12.8204 8.1093 18.8957C6.09117 24.5229 6.10766 31.0362 8.15673 37.2359C9.58911 41.5697 11.9125 45.4315 14.8792 48.4974C15.207 48.8347 15.6537 49.0304 16.1239 49.0426C16.594 49.0549 17.0503 48.8828 17.3952 48.5631L22.3338 43.9878C22.5092 43.8272 22.6507 43.6331 22.7499 43.417C22.849 43.2009 22.9039 42.9671 22.9113 42.7294C22.9187 42.4917 22.8784 42.2549 22.7928 42.0331C22.7072 41.8112 22.578 41.6087 22.4129 41.4376C20.4726 39.4616 18.9056 36.8699 17.9561 33.9971C16.6459 30.033 16.5982 25.7987 17.8243 22.3805C18.9078 19.3595 20.8573 17.2484 23.3141 16.4364C25.7701 15.6247 28.593 16.158 31.2636 17.9387C34.2852 19.953 36.7702 23.3816 38.0804 27.3458C39.0299 30.2186 39.3164 33.2335 38.9353 35.9767C38.9048 36.2125 38.9218 36.4521 38.9853 36.6812C39.0488 36.9104 39.1575 37.1245 39.305 37.311C39.4526 37.4974 39.636 37.6525 39.8444 37.767C40.0528 37.8814 40.2821 37.953 40.5186 37.9775L47.211 38.7086C47.6785 38.7598 48.1475 38.6261 48.5177 38.3361C48.888 38.046 49.1301 37.6227 49.1924 37.1565C49.748 32.9264 49.3117 28.4409 47.8793 24.1071C45.8302 17.9074 41.9628 12.6669 36.9889 9.35108ZM11.2252 28.2731C11.6344 28.1378 12.0745 28.127 12.4899 28.2418C12.9052 28.3567 13.2772 28.5922 13.5587 28.9185C13.8403 29.2448 14.0187 29.6472 14.0715 30.0749C14.1243 30.5026 14.0491 30.9364 13.8554 31.3214C13.6617 31.7063 13.3582 32.0252 12.9833 32.2377C12.6083 32.4501 12.1788 32.5467 11.749 32.515C11.3192 32.4834 10.9085 32.325 10.5687 32.0599C10.2289 31.7948 9.97536 31.4349 9.84012 31.0257C9.65882 30.477 9.70289 29.8788 9.96264 29.3626C10.2224 28.8464 10.6765 28.4545 11.2252 28.2731ZM16.3104 43.1842C15.9012 43.3194 15.4611 43.3303 15.0457 43.2154C14.6304 43.1005 14.2584 42.8651 13.9769 42.5388C13.6953 42.2125 13.5169 41.8101 13.4641 41.3824C13.4113 40.9546 13.4865 40.5209 13.6802 40.1359C13.8739 39.751 14.1774 39.4321 14.5523 39.2196C14.9273 39.0071 15.3568 38.9106 15.7866 38.9423C16.2164 38.9739 16.6271 39.1323 16.9669 39.3974C17.3067 39.6625 17.5602 40.0223 17.6955 40.4315C17.7853 40.7032 17.8207 40.9899 17.7997 41.2753C17.7787 41.5607 17.7017 41.8391 17.5731 42.0948C17.4445 42.3504 17.2667 42.5781 17.0501 42.7651C16.8334 42.952 16.5821 43.0944 16.3104 43.1842ZM14.2623 21.2089C13.8531 21.3441 13.413 21.355 12.9977 21.2401C12.5823 21.1252 12.2103 20.8898 11.9288 20.5635C11.6473 20.2372 11.4688 19.8348 11.416 19.407C11.3632 18.9793 11.4384 18.5456 11.6321 18.1606C11.8258 17.7756 12.1293 17.4568 12.5043 17.2443C12.8792 17.0318 13.3087 16.9353 13.7385 16.9669C14.1683 16.9986 14.5791 17.157 14.9188 17.4221C15.2586 17.6871 15.5122 18.047 15.6474 18.4562C15.8287 19.0049 15.7847 19.6032 15.5249 20.1194C15.2652 20.6356 14.811 21.0275 14.2623 21.2089L14.2623 21.2089ZM22.3768 13.6033C21.9676 13.7385 21.5275 13.7494 21.1121 13.6345C20.6967 13.5196 20.3248 13.2841 20.0432 12.9579C19.7617 12.6316 19.5833 12.2291 19.5304 11.8014C19.4776 11.3737 19.5528 10.94 19.7465 10.555C19.9402 10.17 20.2438 9.85114 20.6187 9.63867C20.9936 9.4262 21.4232 9.32968 21.853 9.36132C22.2827 9.39297 22.6935 9.55135 23.0333 9.81644C23.3731 10.0815 23.6266 10.4414 23.7619 10.8506C23.9431 11.3993 23.8991 11.9976 23.6393 12.5138C23.3796 13.03 22.9254 13.4219 22.3768 13.6033ZM33.4258 14.8751C33.0166 15.0104 32.5765 15.0212 32.1611 14.9064C31.7457 14.7915 31.3738 14.556 31.0922 14.2297C30.8107 13.9034 30.6322 13.501 30.5794 13.0733C30.5266 12.6456 30.6018 12.2118 30.7955 11.8268C30.9892 11.4419 31.2928 11.123 31.6677 10.9105C32.0426 10.6981 32.4722 10.6015 32.902 10.6332C33.3317 10.6648 33.7425 10.8232 34.0823 11.0883C34.4221 11.3534 34.6756 11.7133 34.8108 12.1225C34.9007 12.3942 34.9361 12.6809 34.9151 12.9663C34.8941 13.2516 34.8171 13.5301 34.6885 13.7857C34.5598 14.0413 34.3821 14.2691 34.1655 14.456C33.9488 14.6429 33.6975 14.7854 33.4258 14.8751ZM44.8767 33.7427C44.4675 33.8779 44.0274 33.8888 43.6121 33.7739C43.1967 33.659 42.8248 33.4235 42.5432 33.0973C42.2617 32.771 42.0832 32.3685 42.0304 31.9408C41.9776 31.5131 42.0528 31.0794 42.2465 30.6944C42.4402 30.3094 42.7437 29.9905 43.1187 29.7781C43.4936 29.5656 43.9231 29.4691 44.3529 29.5007C44.7827 29.5324 45.1935 29.6907 45.5333 29.9558C45.873 30.2209 46.1266 30.5808 46.2618 30.99C46.4431 31.5387 46.3991 32.137 46.1393 32.6532C45.8796 33.1694 45.4254 33.5613 44.8767 33.7427L44.8767 33.7427ZM41.442 22.8758C41.0328 23.0111 40.5927 23.0219 40.1773 22.907C39.762 22.7922 39.39 22.5567 39.1085 22.2304C38.8269 21.9041 38.6485 21.5017 38.5957 21.074C38.5428 20.6463 38.6181 20.2125 38.8118 19.8275C39.0055 19.4426 39.309 19.1237 39.6839 18.9112C40.0589 18.6987 40.4884 18.6022 40.9182 18.6339C41.348 18.6655 41.7587 18.8239 42.0985 19.089C42.4383 19.3541 42.6918 19.714 42.8271 20.1231C43.0084 20.6718 42.9643 21.2701 42.7045 21.7863C42.4448 22.3025 41.9906 22.6944 41.442 22.8758L41.442 22.8758Z" fill="#0C4E42"/>
</svg>
