<svg width="33" height="33" viewBox="0 0 33 33" fill="none" xmlns="http://www.w3.org/2000/svg">
<path fill-rule="evenodd" clip-rule="evenodd" d="M30.8838 16.8562C30.8838 16.5904 30.7782 16.3356 30.5903 16.1477C30.4024 15.9598 30.1476 15.8542 29.8818 15.8542L6.24978 15.8542L12.5561 9.54992C12.7442 9.36178 12.8499 9.1066 12.8499 8.84053C12.8499 8.57446 12.7442 8.31929 12.5561 8.13115C12.3679 7.94301 12.1128 7.83732 11.8467 7.83732C11.5806 7.83732 11.3254 7.94301 11.1373 8.13115L3.12168 16.1468C3.02837 16.2398 2.95434 16.3504 2.90383 16.4721C2.85332 16.5939 2.82732 16.7244 2.82732 16.8562C2.82732 16.9879 2.85332 17.1184 2.90383 17.2402C2.95434 17.3619 3.02837 17.4725 3.12168 17.5655L11.1373 25.5812C11.3254 25.7693 11.5806 25.875 11.8467 25.875C12.1128 25.875 12.3679 25.7693 12.5561 25.5812C12.7442 25.393 12.8499 25.1379 12.8499 24.8718C12.8499 24.6057 12.7442 24.3505 12.5561 24.1624L6.24978 17.8581L29.8818 17.8581C30.1476 17.8581 30.4024 17.7525 30.5903 17.5646C30.7782 17.3767 30.8838 17.1219 30.8838 16.8562Z" fill="#C5A57E"/>
</svg>
