<svg width="52" height="52" viewBox="0 0 52 52" fill="none" xmlns="http://www.w3.org/2000/svg">
<path d="M4.49392 38.747C1.38883 33.5082 0.302712 27.3162 1.43946 21.3334C2.57621 15.3506 5.85764 9.98847 10.6677 6.25362C15.4778 2.51877 21.4858 0.668077 27.5637 1.04898C33.6416 1.42988 39.3715 4.01618 43.6776 8.32235C47.9838 12.6285 50.5701 18.3584 50.951 24.4363C51.3319 30.5142 49.4812 36.5222 45.7464 41.3323C42.0115 46.1424 36.6494 49.4238 30.6666 50.5605C24.6838 51.6973 18.4918 50.6112 13.253 47.5061V47.5061L4.59819 49.9565C4.2436 50.0603 3.86764 50.0667 3.50971 49.9751C3.15179 49.8835 2.82508 49.6974 2.56384 49.4362C2.3026 49.1749 2.11645 48.8482 2.02489 48.4903C1.93333 48.1324 1.93975 47.7564 2.04346 47.4018L4.49392 38.747Z" stroke="#C5A57E" stroke-width="2" stroke-linecap="round" stroke-linejoin="round"/>
<path d="M32.3094 40.5723C29.5653 40.5792 26.8469 40.0438 24.3104 38.9968C21.7739 37.9499 19.4692 36.4121 17.5289 34.4717C15.5885 32.5313 14.0507 30.2267 13.0038 27.6902C11.9568 25.1537 11.4214 22.4353 11.4283 19.6912C11.4352 17.7599 12.2073 15.9099 13.5754 14.5467C14.9435 13.1835 16.7962 12.418 18.7275 12.418V12.418C19.0462 12.4155 19.3596 12.4989 19.6349 12.6594C19.9102 12.82 20.137 13.0518 20.2917 13.3304L23.3417 18.6485C23.5231 18.9717 23.6162 19.3371 23.6116 19.7077C23.607 20.0784 23.505 20.4413 23.3156 20.76L20.8652 24.8528C22.1203 27.645 24.3555 29.8802 27.1478 31.1354L31.2406 28.6849C31.5593 28.4956 31.9222 28.3936 32.2928 28.389C32.6635 28.3844 33.0288 28.4775 33.3521 28.6589L38.6702 31.7089C38.9488 31.8636 39.1806 32.0904 39.3411 32.3657C39.5017 32.6409 39.5851 32.9544 39.5826 33.273C39.5757 35.2023 38.8081 37.051 37.4463 38.4177C36.0846 39.7843 34.2386 40.5586 32.3094 40.5723V40.5723Z" stroke="#C5A57E" stroke-width="2" stroke-linecap="round" stroke-linejoin="round"/>
</svg>
