<svg width="50" height="50" viewBox="0 0 50 50" fill="none" xmlns="http://www.w3.org/2000/svg">
<g clip-path="url(#clip0_179_126)">
<path d="M25.1644 10C18.453 10 13 15.2433 13 21.6965C13 26.2945 15.0134 30.9731 18.7886 35.2484C21.6409 38.3943 24.4094 40.169 24.5771 40.2496C24.7449 40.3303 24.9966 40.411 25.1644 40.411C25.3322 40.411 25.5838 40.3303 25.7516 40.2496C25.8355 40.169 28.6879 38.3943 31.5402 35.2484C35.3154 31.0537 37.3288 26.3751 37.3288 21.7772C37.3288 15.2433 31.8758 10 25.1644 10ZM25.1644 26.3751C22.4798 26.3751 20.2986 24.2778 20.2986 21.6965C20.2986 19.1152 22.4798 17.0179 25.1644 17.0179C27.8489 17.0179 30.0301 19.1152 30.0301 21.6965C30.0301 24.2778 27.8489 26.3751 25.1644 26.3751Z" fill="#C5A57E"/>
</g>
<circle cx="25" cy="25" r="24" stroke="#C5A57E" stroke-width="2"/>
<defs>
<clipPath id="clip0_179_126">
<rect width="24.3288" height="30.411" fill="white" transform="translate(13 10)"/>
</clipPath>
</defs>
</svg>
