<svg width="51" height="52" viewBox="0 0 51 52" fill="none" xmlns="http://www.w3.org/2000/svg">
<path d="M12.3518 15.1921C12.4397 15.1921 12.4397 15.1921 12.3518 15.1921C12.4397 15.1921 12.4397 15.1921 12.3518 15.1921C12.4397 15.0961 12.4397 15.0961 12.4397 15.0961C12.4397 15.0961 12.4397 15.0961 12.5277 15.0961C12.5277 15.0961 12.5277 15.0961 12.6156 15.0961C12.8795 15 12.8795 15 12.8795 15H12.9674H37.9446H38.0326C38.0326 15 38.0326 15 38.1205 15C38.1205 15 38.1205 15 38.2085 15C38.2085 15 38.2085 15 38.2964 15L26.1596 28.8312C25.9837 29.0233 25.7199 29.1194 25.456 29.1194C25.1922 29.1194 24.9283 29.0233 24.7524 28.8312L12.3518 15.1921C12.3518 15.2882 12.3518 15.2882 12.3518 15.1921ZM12 17.9776L18.4202 24.9892L12 31.9048V17.9776ZM37.9446 34.8824H13.0554C12.7915 34.8824 12.6156 34.7863 12.4397 34.5942L19.8274 26.526L23.3453 30.368C23.9609 31.0404 24.6645 31.3285 25.456 31.3285C26.2476 31.3285 27.0391 30.9443 27.5668 30.368L31.0847 26.526L38.5603 34.6903C38.4723 34.7863 38.2085 34.8824 37.9446 34.8824ZM39 31.9048L32.6678 24.9892L39 18.0736V31.9048Z" fill="#C5A57E"/>
<circle cx="25" cy="25" r="24" stroke="#C5A57E" stroke-width="2"/>
</svg>
