<svg width="50" height="50" viewBox="0 0 50 50" fill="none" xmlns="http://www.w3.org/2000/svg">
<g clip-path="url(#clip0_179_139)">
<path d="M12 15.0465C12 14.308 12.277 13.5694 12.8309 13.0155C13.3848 12.3693 14.2157 12 15.0465 12H19.1086C20.678 12 21.9705 13.1078 22.1551 14.6773C22.2474 15.6004 22.432 16.4313 22.709 17.3545C23.0783 18.4623 22.709 19.5702 21.9705 20.401L20.3087 22.0628C22.0628 25.2016 24.6477 27.8789 27.8789 29.6329L29.5406 27.9712C30.3715 27.1403 31.4793 26.8634 32.5871 27.2326C33.418 27.5096 34.3412 27.6942 35.2644 27.7865C36.8338 27.9712 37.9416 29.2637 37.9416 30.8331V34.8951C37.9416 35.726 37.5724 36.5569 36.9261 37.1108C36.2799 37.6647 35.449 37.9416 34.6182 37.8493C31.6639 37.5724 28.8944 36.8338 26.2171 35.5413C23.6322 34.3412 21.3242 32.6795 19.2932 30.6484C17.2622 28.6174 15.6004 26.3094 14.4003 23.7245C13.1078 21.0473 12.277 18.2777 12 15.3235C12 15.2312 12 15.1388 12 15.0465Z" fill="#C5A57E"/>
</g>
<circle cx="25" cy="25" r="24" stroke="#C5A57E" stroke-width="2"/>
<defs>
<clipPath id="clip0_179_139">
<rect width="25.8493" height="25.8493" fill="white" transform="translate(12 12)"/>
</clipPath>
</defs>
</svg>
