<svg width="52" height="52" viewBox="0 0 52 52" fill="none" xmlns="http://www.w3.org/2000/svg">
<circle cx="26" cy="26" r="25" stroke="#C5A57E" stroke-width="2"/>
<path d="M35.3481 39.8332H17.4851C15.0166 39.8332 13 37.8166 13 35.3481V17.4851C13 15.0166 15.0166 13 17.4851 13H35.3481C37.8166 13 39.8332 15.0166 39.8332 17.4851V35.3481C39.8332 37.8276 37.8276 39.8332 35.3481 39.8332Z" fill="#C5A57E"/>
<path d="M21.5513 31.2913C22.8516 32.5917 24.5817 33.3079 26.422 33.3079C28.2623 33.3079 29.9814 32.5917 31.2928 31.2913C32.5931 29.991 33.3094 28.2609 33.3094 26.4206C33.3094 24.5803 32.5931 22.8502 31.2928 21.5498C29.9925 20.2495 28.2623 19.5332 26.422 19.5332C24.5817 19.5332 22.8516 20.2495 21.5513 21.5498C20.251 22.8502 19.5347 24.5803 19.5347 26.4206C19.5347 28.2609 20.251 29.991 21.5513 31.2913Z" fill="white"/>
<path d="M34.652 19.3079C35.3823 19.3079 35.9744 18.7158 35.9744 17.9855C35.9744 17.2551 35.3823 16.6631 34.652 16.6631C33.9217 16.6631 33.3296 17.2551 33.3296 17.9855C33.3296 18.7158 33.9217 19.3079 34.652 19.3079Z" fill="white"/>
</svg>
