<svg width="60" height="60" viewBox="0 0 60 60" fill="none" xmlns="http://www.w3.org/2000/svg">
<g clip-path="url(#clip0_252_199)">
<path d="M0 1.76451C0.494118 0.458625 1.44706 -0.0354929 2.82353 -0.00019874C6.35294 0.0703895 9.84706 -0.000198739 13.3765 0.0350954C14.8941 0.0350954 15.8118 0.952742 15.8118 2.47039C15.8118 4.09392 15.8118 5.71745 15.8118 7.34098C15.8118 8.01157 15.4941 8.4351 14.9294 8.4351C14.4 8.4351 14.0471 8.01157 14.0471 7.34098C14.0471 5.78804 14.0471 4.1998 14.0471 2.64686C14.0471 1.94098 13.8706 1.7998 13.2 1.7998C9.67059 1.7998 6.14118 1.7998 2.61176 1.7998C1.90588 1.76451 1.76471 1.94098 1.76471 2.64686C1.76471 6.17627 1.76471 9.67039 1.76471 13.1998C1.76471 13.941 1.90588 14.0822 2.64706 14.0822C6.17647 14.0822 9.67059 14.0822 13.2 14.0822C13.9412 14.0822 14.0824 13.941 14.0824 13.1645C14.0824 12.5645 14.0824 11.9998 14.0824 11.3998C14.0824 10.7645 14.4353 10.3763 14.9294 10.341C15.4588 10.341 15.8118 10.7292 15.8118 11.3645C15.8118 12.1057 15.8118 12.8469 15.8118 13.588C15.7765 14.8233 14.8235 15.8116 13.5529 15.8116C12 15.8116 10.4471 15.8116 8.82353 15.8116C8.82353 19.6586 8.82353 23.4704 8.82353 27.3175C12.3529 27.3175 15.8824 27.3175 19.4824 27.3175C19.4824 26.4704 19.4824 25.6586 19.4824 24.8469C19.4824 24.0351 19.4824 23.2586 19.4824 22.4469C19.5176 20.6822 20.6824 19.5174 22.4471 19.5174C23.6471 19.5174 24.8824 19.5174 26.1529 19.5174C26.1529 18.388 26.1529 17.3292 26.1529 16.2351C26.1529 16.1292 25.9412 16.0233 25.8353 15.9527C24.6706 15.2469 24.1765 14.0116 24.5647 12.8116C24.9529 11.6822 26.0824 10.9057 27.2118 10.9763C28.5529 11.0822 29.5412 12.0351 29.6824 13.3763C29.7882 14.4704 29.3647 15.3174 28.4118 15.8822C28.0588 16.0939 27.9529 16.341 27.9529 16.7292C27.9882 17.6469 27.9529 18.5645 27.9529 19.5174C29.5412 19.5174 31.0588 19.5174 32.7176 19.5174C32.7176 19.3057 32.7176 19.0586 32.7176 18.8469C32.7176 15.388 32.7176 11.8939 32.7176 8.4351C32.7176 7.37627 32.9647 7.12921 34.0235 7.12921C37.1647 7.12921 40.3059 7.12921 43.4471 7.12921C43.6588 7.12921 43.8706 7.12921 44.1529 7.12921C44.1529 6.91745 44.1882 6.74098 44.1882 6.52921C44.1882 5.15274 44.1882 3.81157 44.1882 2.4351C44.1882 1.05862 45.1412 0.105684 46.4823 0.105684C50.2235 0.105684 53.9294 0.105684 57.6706 0.105684C59.0118 0.105684 59.9647 1.09392 60 2.4351C60 6.14098 60 9.84686 60 13.5527C60 14.9292 59.0471 15.8822 57.6353 15.8822C53.9294 15.8822 50.2588 15.8822 46.5529 15.8822C45.1412 15.8822 44.1882 14.9292 44.1882 13.4822C44.1882 11.9998 44.1882 10.5174 44.1882 9.0351C44.1882 8.9998 44.1529 8.96451 44.1529 8.89392C40.9765 8.89392 37.8353 8.89392 34.5882 8.89392C34.5882 12.4233 34.5882 15.9527 34.5882 19.5527C35.0118 19.5527 35.4706 19.5527 35.8941 19.5527C36.4588 19.5527 37.0235 19.5527 37.5882 19.5527C39.3176 19.588 40.4824 20.7174 40.5176 22.4469C40.5176 23.3645 40.5176 24.2822 40.5176 25.2704C41.8588 25.2704 43.1647 25.2704 44.4706 25.2351C44.6118 25.2351 44.7882 24.9527 44.9294 24.7763C45.5647 23.788 46.7294 23.2939 47.8588 23.6116C48.9529 23.8939 49.7647 24.9175 49.8 26.0469C49.8353 27.2469 49.1294 28.2704 48.0353 28.6586C46.8706 29.0822 45.5647 28.6233 44.9294 27.5292C44.7176 27.141 44.4706 27.0351 44.0471 27.0704C42.8824 27.1057 41.7529 27.0704 40.5529 27.0704C40.5529 28.0586 40.5529 29.0116 40.5529 30.0351C40.7647 30.0351 40.9765 30.0351 41.1882 30.0351C44.7176 30.0351 48.2118 30.0351 51.7412 30.0351C52.7294 30.0351 52.9765 30.2822 52.9765 31.2704C52.9765 35.3645 52.9765 39.4233 52.9765 43.5175C52.9765 43.7292 52.9765 43.941 52.9765 44.2233C53.5059 44.2233 54.0353 44.2233 54.5294 44.2233C55.6235 44.2233 56.7176 44.2233 57.8118 44.2233C58.9765 44.2233 60 45.2116 60 46.3763C60 50.188 60.0353 54.0351 60 57.8469C60 58.9763 59.2235 59.6116 58.2706 60.0351C54.1765 60.0351 50.0823 60.0351 45.9529 60.0351C44.6471 59.541 44.1176 58.6233 44.1882 57.2116C44.2588 55.6939 44.1882 54.2116 44.1882 52.6939C44.1882 52.0233 44.5412 51.5998 45.0706 51.5998C45.6 51.5998 45.9529 52.0233 45.9529 52.6939C45.9529 54.2822 45.9529 55.9057 45.9529 57.4939C45.9529 57.988 46.1647 58.2351 46.6941 58.2351C50.2941 58.2351 53.9294 58.2351 57.5294 58.2351C58.0588 58.2351 58.2706 57.988 58.2706 57.4939C58.2706 53.8939 58.2706 50.2939 58.2706 46.7292C58.2706 46.1998 58.0588 45.9527 57.4941 45.9527C53.8941 45.9527 50.2941 45.9527 46.7294 45.9527C46.1647 45.9527 45.9529 46.1998 45.9529 46.7292C45.9529 47.3645 45.9529 48.0351 45.9529 48.6704C45.9529 49.2704 45.6 49.6586 45.1059 49.6586C44.5765 49.6586 44.2235 49.2704 44.2235 48.6351C44.2235 48.2469 44.2588 47.8586 44.2235 47.4704C44.0118 45.0351 45.1059 44.0116 47.4706 44.188C48.7059 44.2586 49.9412 44.188 51.2118 44.188C51.2118 40.0233 51.2118 35.8939 51.2118 31.7998C47.6471 31.7998 44.1176 31.7998 40.5529 31.7998C40.5529 32.0469 40.5529 32.2586 40.5529 32.4704C40.5529 34.1292 40.5882 35.788 40.5176 37.4469C40.5176 38.0116 40.3765 38.6116 40.1294 39.1057C39.6 40.1292 38.6471 40.4822 37.5529 40.5175C36.6 40.5175 35.6118 40.5175 34.5882 40.5175C34.5882 41.6822 34.5882 42.7763 34.5882 43.8351C34.5882 44.2233 34.6941 44.3998 35.0471 44.6116C36.0706 45.2116 36.5294 46.3763 36.2471 47.541C35.9647 48.6351 34.9412 49.4822 33.7765 49.5175C32.6824 49.588 31.6235 48.8469 31.2353 47.8233C30.8118 46.7645 31.0941 45.4586 32.0824 44.8586C32.7529 44.4351 32.8588 43.9763 32.8235 43.2704C32.7882 42.4939 32.8235 41.7527 32.8235 40.9763C32.8235 40.8351 32.7882 40.6939 32.7882 40.5527C31.2 40.5527 29.6824 40.5527 28.0941 40.5527C28.0941 40.8351 28.0941 41.0469 28.0941 41.2939C28.0941 44.6469 28.0941 47.9998 28.0941 51.3527C28.0941 52.4116 27.8118 52.6939 26.7176 52.6939C23.3647 52.6939 20.0118 52.6939 16.6235 52.6939C16.4118 52.6939 16.1647 52.6939 15.9176 52.6939C15.9176 54.2469 15.8824 55.6939 15.9176 57.1763C15.9882 58.5527 15.4588 59.5057 14.1529 59.9998C10.0588 59.9998 5.96471 59.9998 1.83529 59.9998C0.988235 59.6822 0.388235 59.1175 0.0705882 58.2351C0.0705882 54.141 0.0705882 50.0469 0.0705882 45.9175C0.494118 44.8939 1.16471 44.1527 2.36471 44.1527C6.10588 44.1527 9.84706 44.1527 13.6235 44.1527C14.8941 44.1527 15.8824 45.141 15.8824 46.4116C15.8824 47.6822 15.8824 48.988 15.8824 50.2939C15.8824 50.4704 15.8824 50.6822 15.8824 50.8586C19.3765 50.8586 22.7647 50.8586 26.1882 50.8586C26.1882 47.3998 26.1882 43.9763 26.1882 40.5175C25.0235 40.5175 23.8941 40.5175 22.7647 40.5175C20.6824 40.5175 19.5882 39.388 19.5882 37.341C19.5882 36.4586 19.5882 35.6116 19.5882 34.7292C18.6 34.588 18.6 34.588 18.0706 35.2939C17.4 36.2469 16.2 36.6351 15.1059 36.2469C14.0118 35.8939 13.2706 34.8351 13.2706 33.7057C13.2706 32.5763 14.0824 31.5175 15.1412 31.1998C16.2353 30.8822 17.4353 31.2704 18.1059 32.2233C18.5647 32.8939 18.7412 32.9645 19.5529 32.7527C19.5529 31.588 19.5529 30.388 19.5529 29.1527C19.3059 29.1527 19.0588 29.1527 18.8471 29.1527C15.4235 29.1527 11.9647 29.1527 8.54118 29.1527C7.41176 29.1527 7.16471 28.9057 7.16471 27.8116C7.16471 24.0351 7.16471 20.2939 7.16471 16.5174C7.16471 16.3057 7.16471 16.0939 7.16471 15.9174C7.05882 15.8822 7.02353 15.8469 6.98823 15.8469C5.64706 15.8469 4.30588 15.7763 2.96471 15.8469C1.58824 15.9174 0.635294 15.388 0.141176 14.0822C0 9.98804 0 5.85862 0 1.76451ZM29.9294 38.7174C32.4353 38.7174 34.9412 38.7174 37.4118 38.7174C38.3647 38.7174 38.6824 38.3998 38.6824 37.4469C38.6824 32.5057 38.6824 27.5292 38.6824 22.588C38.6824 21.5998 38.4 21.3174 37.3765 21.3174C32.4353 21.3174 27.4941 21.3174 22.5529 21.3174C21.5294 21.3174 21.2471 21.5998 21.2471 22.588C21.2471 27.5292 21.2471 32.4704 21.2471 37.4116C21.2471 38.4351 21.5294 38.7174 22.5882 38.7174C25.0588 38.7174 27.4941 38.7174 29.9294 38.7174ZM58.2353 7.97627C58.2353 6.17627 58.2353 4.37627 58.2353 2.57627C58.2353 1.90568 58.0588 1.76451 57.3882 1.76451C53.8588 1.76451 50.3294 1.76451 46.8 1.76451C46.0941 1.76451 45.9176 1.90568 45.9176 2.61157C45.9176 6.14098 45.9176 9.67039 45.9176 13.1998C45.9176 13.9057 46.0941 14.0469 46.8 14.0469C50.3294 14.0469 53.8235 14.0469 57.3529 14.0469C58.0941 14.0469 58.2353 13.9057 58.2353 13.1645C58.2353 11.4704 58.2353 9.70568 58.2353 7.97627ZM1.76471 52.0939C1.76471 53.8586 1.76471 55.6233 1.76471 57.3527C1.76471 58.0586 1.90588 58.2351 2.61176 58.2351C6.14118 58.2351 9.67059 58.2351 13.2 58.2351C13.9059 58.2351 14.0471 58.0586 14.0471 57.3527C14.0471 53.8233 14.0471 50.2939 14.0471 46.7645C14.0471 46.0939 13.8706 45.9175 13.2353 45.9175C9.67059 45.9175 6.14118 45.9175 2.57647 45.9175C1.90588 45.9175 1.76471 46.0939 1.76471 46.7645C1.76471 48.5645 1.76471 50.3292 1.76471 52.0939ZM47.1882 25.3057C46.7294 25.3057 46.3059 25.6586 46.3059 26.1175C46.2706 26.5763 46.6588 26.9645 47.1176 26.9998C47.6118 27.0351 48.0353 26.6469 48.0353 26.1527C48.0353 25.6939 47.6471 25.3057 47.1882 25.3057ZM27.9176 13.588C27.9176 13.0939 27.5647 12.7763 27.0706 12.7763C26.5765 12.7763 26.2235 13.1292 26.2235 13.6233C26.2235 14.1527 26.5765 14.5057 27.1059 14.4704C27.6 14.4351 27.9176 14.0822 27.9176 13.588ZM15.8471 34.588C16.3412 34.588 16.6588 34.2351 16.6588 33.741C16.6588 33.2116 16.2706 32.8939 15.7412 32.8939C15.2471 32.9292 14.9294 33.2822 14.9647 33.7763C15 34.2704 15.3529 34.6233 15.8471 34.588ZM33.6353 47.7174C34.1294 47.7174 34.4823 47.3645 34.4823 46.8704C34.4823 46.341 34.1294 45.988 33.6 46.0233C33.1059 46.0233 32.7882 46.3763 32.7882 46.9057C32.7882 47.3998 33.1412 47.7174 33.6353 47.7174Z" fill="#C5A57E"/>
<path d="M7.90577 12.3174C6.91753 12.3174 5.96459 12.3174 4.97636 12.3174C4.05871 12.3174 3.5293 11.788 3.5293 10.8703C3.5293 8.89386 3.5293 6.91739 3.5293 4.97622C3.5293 4.09386 4.05871 3.56445 4.94106 3.56445C6.91753 3.56445 8.9293 3.56445 10.9058 3.56445C11.7528 3.56445 12.2822 4.09386 12.2822 4.94092C12.2822 6.95269 12.2822 8.96445 12.2822 10.9762C12.2822 11.788 11.7528 12.3174 10.9058 12.3527C9.91753 12.3174 8.894 12.3174 7.90577 12.3174ZM10.5175 5.32916C8.75283 5.32916 7.02341 5.32916 5.3293 5.32916C5.3293 7.09386 5.3293 8.82328 5.3293 10.5174C7.094 10.5174 8.78812 10.5174 10.5175 10.5174C10.5175 8.78798 10.5175 7.09386 10.5175 5.32916Z" fill="#C5A57E"/>
<path d="M52.0939 47.7173C53.0821 47.7173 54.0351 47.7173 55.0233 47.7173C55.9409 47.7173 56.4704 48.2467 56.5057 49.1644C56.5057 51.1408 56.5057 53.1173 56.5057 55.0585C56.5057 55.9761 55.9762 56.5056 55.0233 56.5056C53.0821 56.5056 51.141 56.5056 49.1645 56.5056C48.2115 56.5056 47.7174 55.9761 47.6821 55.0232C47.6821 53.082 47.6821 51.1761 47.6821 49.235C47.6821 48.2467 48.2115 47.7526 49.1998 47.7526C50.188 47.682 51.141 47.7173 52.0939 47.7173ZM49.4821 54.6703C51.2468 54.6703 52.9762 54.6703 54.6704 54.6703C54.6704 52.9056 54.6704 51.1761 54.6704 49.482C52.9057 49.482 51.2115 49.482 49.4821 49.482C49.4821 51.2114 49.4821 52.9408 49.4821 54.6703Z" fill="#C5A57E"/>
<path d="M24.847 24.847C24.847 28.3058 24.847 31.6941 24.847 35.1529C28.3058 35.1529 31.6941 35.1529 35.1529 35.1529C35.1529 31.7294 35.1529 28.3058 35.1529 24.8117C34.7294 24.8117 34.3411 24.8117 33.9529 24.8117C33.2823 24.7764 32.8588 24.4235 32.8588 23.8941C32.8588 23.3647 33.2823 23.0117 33.9529 23.0117C34.4117 23.0117 34.9058 23.0117 35.3647 23.0117C36.4941 23.0117 37.0235 23.5411 37.0235 24.6705C37.0235 27.5647 37.0235 30.4588 37.0235 33.3529C37.0235 34.0235 37.0235 34.6941 37.0235 35.3294C37.0235 36.4588 36.4941 36.9882 35.3647 36.9882C31.8 36.9882 28.2 36.9882 24.6353 36.9882C23.5411 36.9882 23.0117 36.4588 23.0117 35.3647C23.0117 31.8 23.0117 28.2353 23.0117 24.6353C23.0117 23.5411 23.5411 23.0117 24.6353 23.0117C26.3647 23.0117 28.0941 23.0117 29.8588 23.0117C30.5294 23.0117 30.9529 23.4 30.9176 23.9294C30.9176 24.4235 30.4941 24.7764 29.8588 24.8117C29.7176 24.8117 29.5764 24.8117 29.4352 24.8117C28.0941 24.8117 26.7882 24.8117 25.447 24.8117C25.2705 24.8117 25.0588 24.847 24.847 24.847Z" fill="#C5A57E"/>
<path d="M52.0939 12.3175C51.1057 12.3175 50.1527 12.3175 49.1645 12.3175C48.2468 12.3175 47.7174 11.7881 47.6821 10.8705C47.6821 8.894 47.6821 6.91753 47.6821 4.97636C47.6821 4.05871 48.2115 3.5293 49.1292 3.5293C51.0704 3.5293 53.0115 3.5293 54.988 3.5293C55.941 3.5293 56.4704 4.05871 56.4704 5.01165C56.4704 6.95283 56.4704 8.85871 56.4704 10.7999C56.4704 11.7881 55.9409 12.2822 54.9527 12.2822C53.9998 12.3175 53.0468 12.3175 52.0939 12.3175ZM49.4821 5.3293C49.4821 7.094 49.4821 8.82341 49.4821 10.5175C51.2468 10.5175 52.9762 10.5175 54.6704 10.5175C54.6704 8.75283 54.6704 7.05871 54.6704 5.3293C52.9409 5.3293 51.2468 5.3293 49.4821 5.3293Z" fill="#C5A57E"/>
<path d="M12.3175 52.0938C12.3175 53.082 12.3175 54.0349 12.3175 55.0232C12.3175 55.9408 11.7881 56.4702 10.8705 56.5055C8.894 56.5055 6.91753 56.5055 4.97636 56.5055C4.05871 56.5055 3.5293 55.9761 3.5293 55.0585C3.5293 53.1173 3.5293 51.1761 3.5293 49.1996C3.5293 48.2467 4.05871 47.7173 5.01165 47.7173C6.95283 47.7173 8.85871 47.7173 10.7999 47.7173C11.7881 47.7173 12.2822 48.2467 12.2822 49.2349C12.3175 50.1879 12.3175 51.1408 12.3175 52.0938ZM5.294 54.7055C7.05871 54.7055 8.78812 54.7055 10.4822 54.7055C10.4822 52.9408 10.4822 51.2114 10.4822 49.5173C8.71753 49.5173 7.02341 49.5173 5.294 49.5173C5.294 51.2114 5.294 52.9408 5.294 54.7055Z" fill="#C5A57E"/>
</g>
<defs>
<clipPath id="clip0_252_199">
<rect width="60" height="60" fill="white"/>
</clipPath>
</defs>
</svg>
