<svg width="60" height="60" viewBox="0 0 60 60" fill="none" xmlns="http://www.w3.org/2000/svg">
<g clip-path="url(#clip0_252_207)">
<path d="M4.1889 27.6952C4.69855 27.6952 5.09899 27.3072 5.09899 26.8133C5.09899 26.6722 5.1718 13.5841 5.09899 9.28023C5.06259 7.79856 5.49943 6.59912 6.33671 5.78773C7.17399 4.97634 8.2297 4.69412 8.70294 4.69412H23.9924V7.65745C23.9924 8.01023 24.3929 8.18662 24.6841 8.01023L30.2902 4.55301C30.5451 4.37662 30.5815 4.02384 30.2902 3.84745L24.7205 0.0727319C24.4293 -0.138935 24.0288 0.0727319 24.0288 0.42551V2.89495H8.73935C7.72005 2.89495 6.1911 3.38884 5.06259 4.51773C4.22531 5.32912 3.24241 6.81078 3.27881 9.28023C3.35162 13.5841 3.27881 26.6722 3.27881 26.8133C3.27881 27.3072 3.67925 27.6952 4.1889 27.6952Z" fill="#C5A57E"/>
<path d="M59.5225 23.2504H56.9742V8.43373C56.9742 7.44595 56.4646 5.96429 55.2997 4.87068C54.4624 4.05929 52.9334 3.10679 50.3852 3.14206C45.9804 3.21262 32.4746 3.14206 32.329 3.14206C31.8194 3.14206 31.4189 3.53012 31.4189 4.02401C31.4189 4.5179 31.8194 4.90595 32.329 4.90595C32.4746 4.90595 45.9804 4.97651 50.4216 4.90595C51.9505 4.87068 53.1883 5.29401 54.0255 6.1054C54.8628 6.91679 55.1541 7.93984 55.1541 8.39845V23.2151H52.0962C51.7321 23.2151 51.5501 23.6032 51.7321 23.8854L55.2997 29.3182C55.4817 29.5651 55.8457 29.6004 56.0277 29.3182L59.9229 23.8854C60.1049 23.6384 59.8865 23.2504 59.5225 23.2504Z" fill="#C5A57E"/>
<path d="M55.8093 32.2812C55.2996 32.2812 54.8992 32.6693 54.8992 33.1632C54.8992 33.3043 54.8264 46.3924 54.8992 50.6962C54.9356 52.1779 54.4987 53.3774 53.6615 54.1887C52.8242 55.0001 51.7685 55.2824 51.2952 55.2824H36.0057V52.319C36.0057 51.9662 35.6053 51.7899 35.3141 51.9662L29.7079 55.4235C29.4531 55.5999 29.4167 55.9526 29.7079 56.129L35.3141 59.9037C35.6053 60.1154 36.0057 59.9037 36.0057 59.551V57.0815H51.2952C52.3145 57.0815 53.8435 56.5876 54.972 55.4587C55.8093 54.6474 56.7922 53.1657 56.7558 50.6962C56.683 46.4276 56.7558 33.3396 56.7558 33.1985C56.7194 32.6693 56.3189 32.2812 55.8093 32.2812Z" fill="#C5A57E"/>
<path d="M27.6693 55.0708C27.5237 55.0708 14.018 55.0003 9.57675 55.0708C8.0478 55.0708 6.81008 54.6828 5.9728 53.8714C5.13552 53.06 4.84429 52.0369 4.84429 51.5783V36.7617H7.90219C8.26622 36.7617 8.44824 36.3736 8.26622 36.0914L4.69868 30.6586C4.51666 30.4117 4.15262 30.3764 3.97061 30.6586L0.0754269 36.0561C-0.142994 36.3383 0.0754269 36.7264 0.439462 36.7264H2.98771V51.5431C2.98771 52.5308 3.49736 54.0125 4.66227 55.1061C5.49956 55.8822 6.9921 56.8347 9.43114 56.8347C9.46754 56.8347 9.54035 56.8347 9.57675 56.8347C13.9816 56.7642 27.4873 56.8347 27.6329 56.8347C28.1426 56.8347 28.543 56.4467 28.543 55.9528C28.5794 55.4589 28.179 55.0708 27.6693 55.0708Z" fill="#C5A57E"/>
<path d="M49.5838 29.9882C49.5838 29.7766 49.5838 29.6002 49.5474 29.3885V29.3179C49.1834 19.158 40.5557 11.0088 29.9987 11.0088C27.3776 11.0088 24.8658 11.5027 22.5724 12.4199C22.536 12.4199 22.4996 12.4552 22.4631 12.4552C15.3645 15.348 10.4136 22.1213 10.4136 29.9882C10.4136 40.4657 19.1868 48.9677 29.9987 48.9677C40.7741 48.9677 49.5838 40.4657 49.5838 29.9882ZM47.6908 28.5066H46.9991L44.1961 26.6016L41.575 21.5921C41.4294 21.3452 41.211 21.1688 40.9197 21.1335L35.4956 20.2163L34.4763 18.3113L37.0246 14.1838C42.8491 16.618 47.1083 22.0507 47.6908 28.5066ZM12.2338 29.9882C12.2338 22.968 16.6022 16.9002 22.8636 14.2191C24.8658 15.0305 27.0864 15.983 27.8873 16.4063C27.8509 17.5352 27.7053 20.7102 27.5961 23.1443L26.7588 23.5324L25.6667 20.5691C25.5939 20.3221 25.4118 20.1457 25.157 20.0399C24.9386 19.9341 24.6474 19.9341 24.4289 20.0399L19.4781 22.2624C19.1504 22.4035 18.932 22.721 18.932 23.0738V26.2135L12.2338 30.0941C12.2338 30.0588 12.2338 30.0235 12.2338 29.9882ZM18.9684 43.4643C15.4009 40.7127 12.9618 36.6557 12.3794 32.0696L20.3153 27.5188C20.6066 27.3424 20.7522 27.0602 20.7522 26.7427V23.6735L24.2833 22.086L25.4118 25.0493C25.521 25.2963 25.7031 25.4727 25.9215 25.5785C26.1763 25.6843 26.4311 25.6491 26.6496 25.5432L28.8702 24.4849C29.1614 24.3438 29.3434 24.0616 29.3798 23.7441C29.4162 23.0032 29.7075 16.4416 29.7075 16.0182C29.7075 15.4891 29.7075 15.101 25.4118 13.3371C26.868 12.9491 28.3969 12.7727 29.9623 12.7727C31.7825 12.7727 33.5662 13.0549 35.2044 13.5488L32.5833 17.8174C32.4377 18.0643 32.4013 18.4171 32.5469 18.6641L34.0031 21.3805C34.1123 21.6274 34.3671 21.8038 34.6583 21.8391L40.0825 22.7563L42.5943 27.5541C42.6671 27.6952 42.7763 27.801 42.8855 27.8716L46.1255 30.0588C46.2711 30.1646 46.4531 30.2352 46.6351 30.2352H47.6908C47.618 34.0804 46.2711 37.6435 43.9776 40.501L41.6478 38.2785C41.6114 38.2432 41.5386 38.2079 41.5022 38.1727L38.7719 36.4441C38.6263 36.3382 38.4443 36.3029 38.2623 36.3029H37.8618C39.7912 32.4224 38.5171 28.0832 38.4443 27.8716L38.2987 27.3424L37.7162 27.2718C37.4978 27.2366 32.5105 26.531 28.7246 29.6707C25.521 28.8241 22.6452 29.5649 22.4631 29.6354L21.9171 29.7766L21.8443 30.2705C21.8079 30.4821 21.0434 34.9977 23.4824 38.6666L19.1868 43.041C19.0776 43.1468 18.9684 43.2879 18.9684 43.4643ZM29.9987 38.2785L31.1272 39.3016L31.9281 40.0071L32.6925 40.7127L32.8018 40.8185C32.6561 40.8185 32.4741 40.8538 32.2921 40.8538C31.2728 40.9243 29.9987 40.8538 28.7246 40.4657C28.5789 40.4304 28.3969 40.3599 28.2513 40.3246C27.9601 40.2188 27.6689 40.0777 27.414 39.9366C27.1956 39.8307 26.9772 39.6896 26.7588 39.5485C26.7224 39.5132 26.686 39.4779 26.6496 39.4779C26.5039 39.3721 26.3219 39.231 26.1763 39.0899C26.1035 39.0193 25.9943 38.9135 25.9215 38.8429C25.8123 38.7371 25.7395 38.6313 25.6303 38.5254C25.3026 38.1727 25.0478 37.7846 24.8294 37.3966C23.8465 35.7032 23.5917 33.7982 23.5553 32.4224L25.7759 34.4332L26.5767 35.1388L26.8316 35.3857L27.414 35.9149L28.6882 37.1143H28.7246V37.1496L29.9987 38.2785ZM31.8553 37.5377L31.1636 36.9027L30.5083 36.3029L29.8531 35.7032L29.489 35.3857L27.8145 33.8335L27.0864 33.1985L26.3947 32.5635L24.7202 31.0466C25.4482 31.0113 26.3219 31.0113 27.2684 31.1524C27.596 31.2229 27.9237 31.2582 28.2513 31.3641C28.5789 31.4346 28.8702 31.5404 29.1978 31.6816C30.1079 32.0343 30.9816 32.5282 31.7825 33.2691C31.8189 33.3043 31.8553 33.3396 31.8917 33.3749C32.1101 33.5866 32.3285 33.8335 32.5105 34.0452C32.6925 34.2921 32.8746 34.5391 33.0202 34.8213C33.275 35.2446 33.457 35.6679 33.6026 36.0913C33.8211 36.7263 33.9303 37.3613 34.0031 37.961C34.0031 38.0316 34.0395 38.1021 34.0395 38.1727C34.0759 38.5254 34.0759 38.8782 34.0759 39.1957C34.0759 39.3368 34.0759 39.4779 34.0759 39.5838L33.7847 39.3368L33.093 38.7018L31.8553 37.5377ZM33.0566 31.9638C32.2921 31.2582 31.5276 30.7643 30.7632 30.3763C32.4741 29.3179 34.3671 29.0005 35.714 28.9299L33.0566 31.9638ZM37.0246 30.1293C37.2066 31.7521 37.1338 34.2216 35.7504 36.3029C35.714 36.3735 35.6412 36.4793 35.6048 36.5499C35.5684 36.4793 35.5684 36.3735 35.532 36.3029C35.2772 35.3152 34.8768 34.2921 34.2215 33.3396L37.0246 30.1293ZM29.9987 47.2038C26.4311 47.2038 23.082 46.1807 20.2789 44.3816C20.3517 44.3463 20.4245 44.2757 20.4974 44.2052L24.6474 40.0071C24.7202 40.1129 24.8294 40.1835 24.9022 40.2541C26.9408 42.1238 29.5618 42.5824 31.6004 42.5824C33.457 42.5824 34.8404 42.1943 34.986 42.1591L35.4956 42.0179L35.6048 41.5241C35.6412 41.4182 35.8961 40.3246 35.8597 38.8429C36.1145 38.596 36.3693 38.3843 36.6241 38.1021C36.6605 38.0668 36.6969 38.0316 36.6969 37.9963H38.0439L40.4829 39.5485L42.8127 41.771C42.8127 41.771 42.8491 41.771 42.8491 41.8063C39.6092 45.1577 35.0588 47.2038 29.9987 47.2038Z" fill="#C5A57E"/>
</g>
<defs>
<clipPath id="clip0_252_207">
<rect width="60" height="60" fill="white"/>
</clipPath>
</defs>
</svg>
