<svg width="60" height="60" viewBox="0 0 60 60" fill="none" xmlns="http://www.w3.org/2000/svg">
<g clip-path="url(#clip0_248_167)">
<path d="M12.599 60C12.599 56.5193 12.599 53.073 12.599 49.5922C12.599 49.1097 12.6679 48.5583 12.84 48.1103C13.0809 47.49 12.8744 47.1109 12.4958 46.6284C9.36322 42.7686 7.74532 38.3573 7.74532 33.3602C7.74532 32.8432 7.74532 32.3607 7.74532 31.8093C6.74704 31.637 5.78319 31.4647 4.81933 31.3269C2.82277 31.0167 1.51468 29.1557 2.06546 27.2947C2.44412 26.0196 3.51124 25.1924 4.85375 25.1924C6.5405 25.1924 8.22725 25.1924 9.94842 25.1924C12.9433 25.2269 15.4906 27.7427 15.525 30.7754C15.5594 34.3941 16.6266 37.6336 18.8297 40.494C19.105 40.8731 19.346 40.8731 19.7591 40.7697C21.2393 40.4595 22.7539 40.2183 24.2686 39.9771C25.3357 39.8047 25.3013 39.8392 25.6455 38.8053C25.9209 37.9782 25.8865 37.4268 25.0603 36.8754C23.8555 36.0483 23.1326 34.7731 22.6851 33.3946C22.5818 33.05 22.4441 32.9466 22.0655 32.9121C20.5164 32.8777 19.1395 31.8093 18.6231 30.293C18.1412 28.8455 18.5198 27.1224 19.7591 26.1919C20.3099 25.7783 20.4131 25.3303 20.3787 24.71C20.2754 21.8151 21.2737 19.4027 23.4768 17.5417C24.9914 16.1976 26.8503 15.5084 28.9157 15.5084C30.4303 15.5084 31.9794 15.405 33.4596 15.853C37.1429 16.9903 39.6558 20.3332 39.6558 24.1586C39.6558 24.2964 39.6558 24.4343 39.6558 24.5721C39.587 25.2614 39.7247 25.7783 40.3443 26.2608C41.5491 27.2258 41.8933 28.9489 41.3426 30.3964C40.7574 31.9127 39.587 32.7398 37.9691 32.9121C37.7625 32.9466 37.4527 33.05 37.4183 33.1879C36.8331 35.0489 35.7315 36.4618 34.1136 37.5302C34.2858 38.185 34.4235 38.8398 34.5956 39.4601C34.63 39.598 34.871 39.7703 35.0431 39.8047C36.5921 40.0804 38.1412 40.2528 39.6902 40.5629C40.9639 40.8042 40.9639 40.8386 41.7212 39.7703C43.5457 37.1166 44.4751 34.1873 44.5095 30.9822C44.5784 27.9839 46.4372 25.7783 49.3632 25.2269C49.673 25.158 49.9484 25.158 50.2582 25.158C51.8073 25.158 53.3563 25.1924 54.9054 25.1235C56.42 25.0546 57.8314 26.1229 58.0035 27.6393C58.21 29.2591 57.2118 30.7754 55.6283 31.1545C54.7333 31.3613 53.8038 31.4992 52.9088 31.637C52.7023 31.6715 52.4957 31.7404 52.2892 31.7749C52.2204 33.05 52.2204 34.2907 52.1171 35.4969C51.704 39.7703 50.0517 43.5267 47.2978 46.8007C47.0224 47.1453 46.988 47.4211 47.0568 47.8346C47.229 48.5583 47.3667 49.3165 47.4011 50.0402C47.4355 53.3142 47.4011 56.6227 47.4011 59.9656C35.8004 60 24.2341 60 12.599 60ZM20.3443 49.4199C20.3443 52.3493 20.3443 55.2097 20.3443 58.0701C23.2703 58.0701 26.1274 58.0701 29.019 58.0701C29.019 56.9673 29.019 55.8989 29.019 54.8306C29.019 54.6238 28.9157 54.3826 28.778 54.1758C26.4717 50.3849 24.1309 46.5939 21.7901 42.803C21.5491 42.4239 21.3081 42.355 20.8951 42.4584C17.0741 43.3889 14.5267 46.5595 14.4923 50.4883C14.4579 52.9007 14.4923 55.2786 14.4923 57.691C14.4923 57.8289 14.5267 57.9667 14.5267 58.1046C15.8348 58.1046 17.0741 58.1046 18.3822 58.1046C18.3822 55.1752 18.3822 52.3148 18.3822 49.4544C19.0706 49.4199 19.6558 49.4199 20.3443 49.4199ZM45.4734 58.1046C45.4734 55.3475 45.6111 52.625 45.4389 49.9024C45.198 46.1115 42.6851 43.32 39.105 42.4584C38.6575 42.355 38.4166 42.4239 38.1756 42.8375C36.0069 46.3872 31.463 53.7622 31.3254 54.0724C31.1877 54.3826 31.1188 54.486 31.1188 55.0029C31.1188 55.1752 31.1188 58.1046 31.1188 58.1046C31.1188 58.1046 36.7987 58.1046 39.6902 58.1046C39.6902 55.2097 39.6902 52.3148 39.6902 49.4544C40.3787 49.4544 40.9639 49.4544 41.618 49.4544C41.618 52.3493 41.618 55.2097 41.618 58.1046C42.926 58.1046 44.1653 58.1046 45.4734 58.1046ZM22.3064 25.1924C23.7178 25.1924 25.1291 25.2269 26.5061 25.1924C28.4682 25.158 30.0173 24.3309 31.1532 22.7111C31.4286 22.332 31.6696 21.9529 31.9794 21.4704C33.2186 23.8484 34.8021 25.5715 37.7281 25.158C38.0379 21.6772 36.0414 18.61 32.8744 17.7484C31.1188 17.266 29.2944 17.2315 27.5388 17.6451C24.0964 18.4377 22.0999 21.3326 22.3064 25.1924ZM31.8761 24.8478C29.7419 27.1224 27.0224 27.2947 24.2341 27.0879C24.2341 28.5698 24.1653 29.9483 24.2341 31.2924C24.4062 34.2217 26.5749 36.4274 29.5353 36.772C32.0827 37.0822 34.7333 35.3246 35.525 32.7398C36.1102 30.8788 35.7315 28.9489 35.8348 27.0534C34.2169 26.7777 32.9433 26.054 31.8761 24.8478ZM45.9897 34.9799C45.3701 37.5302 44.2686 39.7703 42.7883 41.6657C44.2686 42.7341 45.3013 43.7335 46.1618 45.181C47.883 43.6301 50.1894 38.2194 50.0861 35.7036C48.7436 35.4279 47.4011 35.2212 45.9897 34.9799ZM13.8383 45.181C14.8365 43.6301 15.9037 42.7686 17.2462 41.6657C15.7316 39.7703 14.6644 37.4613 14.0448 34.9799C12.599 35.2212 11.2909 35.4624 9.87957 35.6692C10.2927 39.3223 11.6696 42.4584 13.8383 45.181ZM13.6661 33.05C13.6317 32.1884 13.6317 31.3613 13.5285 30.5687C13.3219 28.7077 12.0482 27.3292 10.155 27.1568C8.36494 27.019 6.57492 27.0879 4.78491 27.1224C4.09644 27.1224 3.75221 27.8116 3.95875 28.5009C4.16529 29.0868 4.57837 29.328 5.12914 29.3969C5.9553 29.5348 6.74704 29.6726 7.5732 29.776C7.77974 29.8105 7.98629 29.8449 8.1584 29.8794C9.05341 30.0862 9.63861 30.8444 9.67303 31.7404C9.67303 32.3607 9.67303 32.9811 9.67303 33.6703C11.1188 33.498 12.3581 33.2568 13.6661 33.05ZM50.3271 33.7048C50.3271 33.1534 50.2926 32.7054 50.3271 32.2918C50.3615 31.8438 50.3615 31.3958 50.4992 30.9822C50.8434 30.1207 51.6352 29.9139 52.4613 29.776C53.3563 29.6382 54.2513 29.5003 55.1119 29.2935C55.766 29.1557 56.179 28.5354 56.0758 27.9495C56.0069 27.3981 55.5594 27.0879 54.8365 27.0879C53.3219 27.0879 51.7729 27.0534 50.2582 27.0879C48.5026 27.1224 46.9536 28.2252 46.6093 29.8794C46.4028 30.8788 46.4028 31.9472 46.2995 33.0155C47.642 33.2568 48.9501 33.498 50.3271 33.7048ZM27.7109 38.4262C27.5732 38.9776 27.4355 39.4946 27.3322 40.046C27.2978 40.1838 27.4011 40.3906 27.5044 40.4595C28.2272 41.0454 28.9501 41.5968 29.7075 42.1138C29.8451 42.2171 30.1205 42.2171 30.2582 42.1138C31.0155 41.5968 31.7384 41.0109 32.4613 40.4595C32.5646 40.3906 32.6679 40.1838 32.6679 40.0804C32.5646 39.529 32.3925 38.9776 32.2548 38.3918C30.7402 38.8742 29.2599 38.8398 27.7109 38.4262ZM25.5422 45.112C26.4717 44.5606 27.2978 44.0437 28.1584 43.5267C26.6093 41.8381 25.7832 41.5623 23.6489 42.0793C24.303 43.0787 24.8882 44.0781 25.5422 45.112ZM31.7729 43.4923C32.7367 44.0437 33.5629 44.5606 34.4923 45.112C35.1463 44.0781 35.7315 43.0787 36.3856 42.0448C35.7315 41.9414 35.1808 41.8381 34.5956 41.7691C34.389 41.7347 34.1136 41.7691 33.976 41.8725C33.2186 42.3895 32.5302 42.9064 31.7729 43.4923ZM22.2376 30.9822C22.2376 29.6726 22.2376 28.432 22.2376 27.1568C21.1016 27.2602 20.3443 28.0529 20.3443 29.0523C20.3443 30.0862 21.1016 30.8444 22.2376 30.9822ZM37.7625 30.9822C38.9329 30.8099 39.6902 30.0517 39.6558 29.0523C39.6558 28.0184 38.8641 27.2602 37.7625 27.1568C37.7625 28.432 37.7625 29.6726 37.7625 30.9822ZM30.0861 47.8001C30.0517 47.8001 29.9828 47.8001 29.9484 47.8001C29.7763 48.5239 29.673 48.9374 29.3976 49.9024C29.1223 50.8673 30.0517 52.3148 30.0517 52.3148C30.0517 52.3148 30.9123 50.8673 30.6713 49.9024C30.4648 49.2131 30.2582 48.5239 30.0861 47.8001ZM26.5749 46.8007C26.9536 47.3866 27.2978 47.938 27.7109 48.5928C27.9863 47.5589 28.1928 46.6629 28.4682 45.6634C27.7453 46.077 27.1945 46.4216 26.5749 46.8007ZM31.5663 45.6634C31.8417 46.6973 32.0827 47.5934 32.3236 48.5928C32.7367 47.9035 33.0809 47.3521 33.4596 46.7663C32.8056 46.4216 32.2548 46.077 31.5663 45.6634Z" fill="#C5A57E"/>
<path d="M13.5627 9.71869C13.5627 11.2006 13.1152 12.5102 12.2546 13.7164C11.9792 14.061 11.7038 14.4056 11.4629 14.7847C10.3269 16.4045 9.56957 18.1621 9.67284 20.2299C9.77611 21.953 8.4336 23.2626 6.78128 23.2282C5.12895 23.2282 3.82086 21.9186 3.92413 20.2299C4.06183 17.8519 3.06355 15.922 1.68661 14.1644C-0.103406 11.8554 -0.516487 9.40852 0.688332 6.75487C2.03085 3.89445 5.23222 2.37808 8.29591 3.06734C11.3596 3.75659 13.5627 6.54809 13.5627 9.71869ZM7.74513 17.783C7.74513 17.783 7.95167 17.4039 7.95167 17.3695C8.53687 15.474 9.63842 13.9232 10.7744 12.3379C12.0825 10.5458 11.8415 8.09893 10.3269 6.41024C8.84668 4.79048 6.47146 4.37693 4.54375 5.41082C1.8243 6.85826 1.13584 10.2356 3.06355 12.7514C4.06183 14.061 4.81914 15.5085 5.47319 17.0593C5.57646 17.2661 5.81742 17.783 5.81742 17.783C5.81742 17.783 5.81742 15.8186 5.85184 15.026C5.85184 14.578 5.783 14.3367 5.33549 14.0955C4.06183 13.4062 3.5799 11.8209 4.13067 10.4769C4.71587 9.09835 6.19608 8.40909 7.60744 8.82265C8.74341 9.16728 9.56957 10.1322 9.67284 11.2351C9.77611 12.5102 9.29418 13.4751 8.19263 14.1299C8.02052 14.2333 7.77955 14.4401 7.74513 14.6124C7.74513 15.5429 7.74513 17.783 7.74513 17.783ZM5.81742 19.4028C5.85184 20.0576 5.61088 20.7813 6.33377 21.1604C6.60916 21.2982 7.09109 21.2638 7.33205 21.0915C7.95167 20.6779 7.74513 20.0231 7.74513 19.4028C7.09109 19.4028 6.47146 19.4028 5.81742 19.4028ZM7.74513 11.6831C7.77955 11.2006 7.33205 10.7181 6.8157 10.6836C6.33377 10.6492 5.85184 11.0972 5.81742 11.6141C5.783 12.0966 6.2305 12.5791 6.74685 12.6136C7.22878 12.6136 7.71071 12.1656 7.74513 11.6831Z" fill="#C5A57E"/>
<path d="M60.0003 16.1977C59.3118 16.439 58.6233 16.6802 57.9349 16.887C57.5562 16.9904 57.4874 17.1627 57.6595 17.5073C57.9349 18.0587 58.2103 18.5757 58.4168 19.1616C58.4856 19.3339 58.4512 19.6785 58.3135 19.8164C57.7628 20.4367 57.1431 20.9881 56.5924 21.574C56.3514 21.8497 56.1449 21.8152 55.8695 21.6774C55.3531 21.4016 54.8368 21.1604 54.3204 20.8847C54.0106 20.7124 53.8041 20.7813 53.7008 21.1604C53.4943 21.8497 53.2533 22.5389 53.0123 23.2282C51.8764 23.2282 50.7748 23.2282 49.6388 23.2282C49.4323 22.6079 49.2257 21.9875 49.0192 21.4016C48.7782 20.7124 48.7782 20.7124 48.0898 21.057C47.6423 21.2638 47.1603 21.4706 46.7473 21.7118C46.4375 21.8841 46.2653 21.8497 46.0244 21.6084C45.4736 21.0226 44.854 20.4367 44.3032 19.8508C44.1655 19.713 44.1311 19.3683 44.1999 19.196C44.4065 18.6791 44.6474 18.1966 44.9228 17.7486C45.1638 17.3006 45.0949 17.0593 44.613 16.9215C43.959 16.7491 43.3049 16.5079 42.6509 16.3011C42.6509 15.2672 42.6509 14.2334 42.6509 13.2339C42.6509 13.0961 42.8574 12.8893 43.0295 12.8204C43.5803 12.6136 44.1655 12.4068 44.7507 12.2345C45.0949 12.1311 45.1638 11.9588 44.9917 11.6486C44.7163 11.0972 44.4409 10.5458 44.1999 9.95995C44.1311 9.78763 44.1655 9.47747 44.3032 9.33961C44.8884 8.71928 45.508 8.13341 46.0932 7.51308C46.3342 7.27184 46.5063 7.27184 46.7817 7.40969C47.298 7.68539 47.8144 7.92663 48.3307 8.20234C48.675 8.37465 48.8815 8.30572 48.9848 7.92663C49.1569 7.34076 49.329 6.75489 49.57 6.20348C49.6388 6.06563 49.8798 5.89332 50.0175 5.85886C50.9125 5.82439 51.7731 5.82439 52.6681 5.85886C52.8402 5.85886 53.0812 6.06563 53.15 6.23795C53.3566 6.75489 53.5287 7.3063 53.7008 7.82324C53.8385 8.30572 54.045 8.34019 54.4581 8.13341C54.94 7.85771 55.4908 7.65093 55.9727 7.37522C56.2481 7.23737 56.4202 7.23737 56.6612 7.47861C57.2464 8.09895 57.866 8.65035 58.4512 9.30515C58.5545 9.443 58.6233 9.75317 58.5545 9.92548C58.3824 10.408 58.107 10.856 57.866 11.3385C57.5218 11.9933 57.5562 12.0277 58.2447 12.269C58.6922 12.4068 59.1053 12.5791 59.5528 12.7514C59.9659 12.8893 60.138 13.165 60.138 13.613C59.9659 14.4401 60.0003 15.3017 60.0003 16.1977ZM56.1793 10.0289C56.2137 9.71871 55.9039 9.54639 55.5252 9.71871C54.9056 9.99441 54.3204 10.3735 53.5975 10.2357C52.4615 9.99441 51.9108 9.23622 51.6354 8.16787C51.601 7.99556 51.36 7.89217 51.2567 7.75432C51.119 7.89217 50.9813 7.99556 50.9125 8.13341C50.8436 8.27126 50.8092 8.44358 50.7404 8.58143C50.224 10.0633 48.8815 10.6147 47.4702 9.95995C47.1948 9.82209 46.885 9.37408 46.5407 9.75317C46.1621 10.1323 46.5751 10.4424 46.7473 10.6837C47.5046 11.9243 46.7128 13.6475 45.4047 13.9921C45.0949 14.061 44.613 14.3023 44.5786 14.5091C44.5097 15.0605 45.0949 14.9571 45.4047 15.0605C46.8505 15.6119 47.4013 16.9215 46.7817 18.3344C46.644 18.6446 46.1621 18.9548 46.5751 19.3339C46.9538 19.713 47.2636 19.2305 47.5734 19.0926C48.9504 18.4723 50.2585 19.0237 50.7748 20.4367C50.8781 20.7469 51.0846 21.2638 51.3256 21.2983C51.8764 21.3672 51.7387 20.7813 51.8764 20.4711C52.3927 19.0237 53.7352 18.4723 55.1122 19.1271C55.3187 19.2305 55.4908 19.3339 55.6974 19.4028C55.835 19.4373 56.0072 19.4028 56.1104 19.2994C56.1793 19.2305 56.2137 19.0582 56.1793 18.9548C56.1104 18.7135 55.9383 18.4723 55.835 18.2311C55.2498 16.9559 55.8006 15.5774 57.1431 15.1294C57.3841 15.0605 57.6251 14.9915 57.8316 14.8881C57.9349 14.8192 58.0726 14.6469 58.0726 14.5435C58.0726 14.4401 57.9349 14.2678 57.8316 14.1989C57.6251 14.0955 57.3841 14.0266 57.1431 13.9576C55.8006 13.4752 55.2154 12.1311 55.835 10.856C55.9383 10.5458 56.076 10.3046 56.1793 10.0289Z" fill="#C5A57E"/>
<path d="M38.6919 1.89546C38.6919 0.792648 37.8658 0 36.7642 0C32.2892 0 27.7797 0 23.2702 0C22.1343 0 21.3425 0.827111 21.3081 1.92993C21.3081 3.85985 21.3081 5.78978 21.3081 7.7197C21.3081 8.85698 22.1343 9.64963 23.2702 9.64963C23.8899 9.64963 24.4751 9.64963 25.1635 9.64963C25.1635 10.2355 25.1635 10.7524 25.1635 11.2694C25.1635 12.3722 25.7831 13.1993 26.7814 13.475C27.7453 13.7507 28.7436 13.2682 29.2599 12.3377C29.6041 11.6485 29.9828 10.9937 30.2926 10.27C30.4992 9.78748 30.7401 9.61516 31.2909 9.64963C33.1153 9.68409 34.9398 9.68409 36.7986 9.64963C37.9002 9.64963 38.7264 8.82252 38.7264 7.75416C38.7264 5.82424 38.7264 3.85985 38.6919 1.89546ZM36.7642 7.37507C36.7642 7.58185 36.5921 7.75416 36.3856 7.75416H35.5594C33.7005 7.75416 31.8072 7.75416 29.9484 7.75416C29.5353 7.75416 29.3288 7.89202 29.1911 8.23664C28.7091 9.23607 28.2272 10.2355 27.7109 11.2005C27.642 11.3383 27.4355 11.5796 27.2978 11.5451C27.1601 11.5106 27.1601 11.2349 27.1601 11.0626C27.1601 10.0976 27.1601 9.13268 27.1601 8.16772C27.1601 7.96094 26.988 7.78863 26.7814 7.78863H23.7522C23.5456 7.78863 23.3735 7.61631 23.3735 7.40953V2.37794C23.3735 2.17117 23.5456 1.99885 23.7522 1.99885H36.4544C36.6609 1.99885 36.8331 2.17117 36.8331 2.37794V7.37507H36.7642Z" fill="#C5A57E"/>
<path d="M33.735 32.3606C33.1498 33.8425 31.704 34.8419 30.155 34.8419C28.365 34.8764 26.9536 33.9804 26.2651 32.3606C26.8159 32.0849 27.3667 31.8092 27.9519 31.499C28.3994 32.3261 29.0534 32.8775 29.9829 32.8775C30.9467 32.8775 31.6008 32.3606 32.0483 31.499C32.6335 31.8437 33.1842 32.1194 33.735 32.3606Z" fill="#C5A57E"/>
<path d="M28.0552 29.0524C28.0552 29.6038 27.6421 30.0173 27.1257 30.0173C26.5749 30.0173 26.1274 29.6038 26.1274 29.0179C26.1274 28.4665 26.5405 28.0874 27.0913 28.0874C27.6421 28.0874 28.0552 28.501 28.0552 29.0524Z" fill="#C5A57E"/>
<path d="M32.9431 28.0874C33.4939 28.0874 33.8725 28.501 33.8725 29.0524C33.8725 29.6038 33.425 30.0518 32.8743 30.0173C32.3235 29.9829 31.9448 29.5693 31.9448 29.0179C31.9792 28.501 32.3923 28.0874 32.9431 28.0874Z" fill="#C5A57E"/>
<path d="M51.291 11.6143C52.9089 11.6143 54.1825 12.8894 54.1825 14.5436C54.1825 16.1634 52.8745 17.4385 51.2566 17.4385C49.6731 17.4385 48.3994 16.1289 48.3994 14.5436C48.3994 12.9238 49.6731 11.6143 51.291 11.6143ZM51.2566 15.5086C51.7385 15.5086 52.2204 15.0606 52.2548 14.5781C52.2548 14.0956 51.8073 13.6131 51.3254 13.5786C50.8435 13.5786 50.3615 14.0267 50.3271 14.5091C50.3271 14.9916 50.7746 15.4741 51.2566 15.5086Z" fill="#C5A57E"/>
<path d="M27.0913 3.92871C27.0913 4.58351 27.0913 5.16938 27.0913 5.78971C26.4717 5.78971 25.8865 5.78971 25.2324 5.78971C25.2324 5.20384 25.2324 4.58351 25.2324 3.92871C25.8176 3.92871 26.4372 3.92871 27.0913 3.92871Z" fill="#C5A57E"/>
<path d="M29.0879 5.78971C29.0879 5.16938 29.0879 4.58351 29.0879 3.92871C29.6731 3.92871 30.2927 3.92871 30.9468 3.92871C30.9468 4.51458 30.9468 5.13491 30.9468 5.78971C30.3271 5.78971 29.7075 5.78971 29.0879 5.78971Z" fill="#C5A57E"/>
<path d="M34.802 5.78971C34.1824 5.78971 33.5972 5.78971 32.9775 5.78971C32.9775 5.16938 32.9775 4.58351 32.9775 3.92871C33.5627 3.92871 34.1824 3.92871 34.802 3.92871C34.802 4.51458 34.802 5.13491 34.802 5.78971Z" fill="#C5A57E"/>
</g>
<defs>
<clipPath id="clip0_248_167">
<rect width="60" height="60" fill="white"/>
</clipPath>
</defs>
</svg>
