<svg width="60" height="60" viewBox="0 0 60 60" fill="none" xmlns="http://www.w3.org/2000/svg">
<g clip-path="url(#clip0_253_215)">
<path d="M55.5452 0C56.7119 0.494991 57.0655 1.41426 57.0301 2.65174C56.9594 4.6317 57.0301 6.64702 57.0301 8.62699C57.0301 10.2534 56.2523 11.0312 54.6259 11.0312C53.7773 11.0312 52.9641 11.0312 52.0449 11.0312C52.0449 11.7384 51.9741 12.3748 52.0449 13.0466C52.2924 15.3094 51.6206 17.254 50.4185 19.1279C48.6153 21.921 47.0242 24.8203 45.3978 27.6842C44.8675 28.6388 44.0896 29.0984 43.0289 29.0277C42.3925 28.9923 41.7915 29.0277 41.049 29.0277C41.049 29.2752 41.049 29.452 41.049 29.6641C41.049 31.043 41.049 32.4219 41.049 33.8362C41.049 34.5433 40.6247 35.0383 40.0236 35.0383C39.4226 35.0383 39.0337 34.5787 39.0337 33.8362C39.0337 32.4573 39.0337 31.1137 39.0337 29.7348C39.0337 29.5227 39.0337 29.3105 39.0337 29.0277C38.2912 29.0277 37.6194 29.0277 36.9123 29.0277C35.9223 29.0631 35.2152 28.6388 34.7202 27.7549C32.6695 24.2192 30.6188 20.7189 28.5328 17.2186C28.1792 16.6176 28.0024 16.0165 28.0378 15.3447C28.0731 13.9305 28.0378 12.5162 28.0378 10.9959C27.0832 10.9959 26.1992 10.9959 25.3153 10.9959C23.795 10.9959 23.0172 10.218 23.0172 8.6977C23.0172 6.64702 23.0525 4.59635 23.0172 2.54567C22.9818 1.34355 23.4061 0.459635 24.5375 0C34.8616 0 45.1857 0 55.5452 0ZM30.7956 17.0065C30.8663 17.1479 30.8663 17.2186 30.9017 17.254C32.7402 20.4007 34.5434 23.5121 36.3819 26.6588C36.488 26.8356 36.8062 26.977 37.0183 26.977C38.9629 27.0124 40.9076 26.977 42.8875 27.0124C43.3118 27.0124 43.5239 26.8709 43.7007 26.5174C45.4332 23.5121 47.1657 20.5421 48.8981 17.5722C49.0042 17.3954 49.0749 17.254 49.181 17.0065C48.4031 17.0065 47.696 17.0065 46.9889 17.0065C44.3371 17.0065 41.7208 17.0065 39.069 17.0065C38.4326 17.0065 38.0083 16.6883 37.9376 16.1226C37.8315 15.4862 38.3619 14.9912 39.1044 14.9912C42.4986 14.9912 45.8575 14.9912 49.2517 14.9912C49.4638 14.9912 49.676 14.9912 49.8881 14.9912C49.8881 13.6123 49.8881 12.3394 49.8881 11.0312C43.2057 11.0312 36.5941 11.0312 29.9824 11.0312C29.9824 12.3748 29.9824 13.6476 29.9824 14.9912C31.2552 14.9912 32.4927 14.9912 33.7302 14.9912C34.4727 14.9912 34.9677 15.4154 34.9677 16.0165C34.9323 16.6176 34.4727 16.9711 33.7302 16.9711C32.8109 17.0065 31.8563 17.0065 30.7956 17.0065ZM29.0278 2.01532C29.0278 2.58103 29.0278 3.14673 29.0278 3.67708C29.0278 3.92457 28.9924 4.20743 28.8863 4.41956C28.6742 4.84384 28.3206 5.05598 27.8256 4.98527C27.2599 4.8792 26.9771 4.49028 26.9771 3.92457C26.9417 3.28816 26.9771 2.65174 26.9771 2.01532C26.3053 2.01532 25.7043 2.01532 25.0678 2.01532C25.0678 4.34885 25.0678 6.64702 25.0678 8.98055C35.0384 8.98055 44.9736 8.98055 54.9441 8.98055C54.9441 6.64702 54.9441 4.34885 54.9441 2.05068C54.3077 2.05068 53.6713 2.05068 52.9995 2.05068C52.9995 2.68709 52.9995 3.28816 52.9995 3.88922C52.9995 4.59635 52.6106 5.02062 52.0095 5.05598C51.4084 5.05598 50.9842 4.59635 50.9842 3.88922C50.9842 3.28816 50.9842 2.68709 50.9842 2.08603C50.277 2.08603 49.6406 2.08603 49.0042 2.08603C49.0042 2.72245 49.0042 3.28816 49.0042 3.88922C49.0042 4.59635 48.5799 5.09134 47.9789 5.05598C47.4132 5.02062 47.0242 4.56099 47.0242 3.88922C47.0242 3.28816 47.0242 2.68709 47.0242 2.08603C46.3171 2.08603 45.6807 2.08603 45.0796 2.08603C45.0443 2.15675 45.0443 2.1921 45.0443 2.22746C45.0443 2.75781 45.0443 3.32351 45.0443 3.85386C45.0443 4.56099 44.62 5.05598 44.0543 5.05598C43.4532 5.05598 43.0643 4.59635 43.0643 3.85386C43.0643 3.2528 43.0643 2.65174 43.0643 2.08603C42.3572 2.08603 41.7208 2.08603 41.0843 2.08603C41.0843 2.68709 41.0843 3.28816 41.0843 3.85386C41.0843 4.56099 40.6954 5.05598 40.0944 5.05598C39.4933 5.05598 39.1044 4.59635 39.1044 3.85386C39.1044 3.2528 39.1044 2.65174 39.1044 2.05068C38.3972 2.05068 37.7962 2.05068 37.1244 2.05068C37.1244 2.65174 37.1244 3.21744 37.1244 3.78315C37.1244 4.56099 36.7355 5.02062 36.0991 5.05598C35.498 5.05598 35.1091 4.59635 35.0737 3.8185C35.0737 3.2528 35.0737 2.65174 35.0737 2.08603C34.3666 2.08603 33.7655 2.08603 33.0938 2.08603C33.0938 2.68709 33.0938 3.21744 33.0938 3.78315C33.0938 4.59635 32.6695 5.09134 32.0684 5.09134C31.4674 5.09134 31.0784 4.59635 31.0784 3.8185C31.0784 3.2528 31.0784 2.68709 31.0784 2.08603C30.3006 2.01532 29.7349 2.01532 29.0278 2.01532Z" fill="#C5A57E"/>
<path d="M60.0001 52.3632C59.6466 52.8582 59.1869 52.9996 58.5859 52.9996C56.2877 52.9642 53.9895 52.9996 51.656 52.9996C51.4439 52.9996 51.2317 52.9996 50.9842 53.0349C50.9842 53.2824 50.9842 53.4946 50.9842 53.7067C50.9842 55.1563 50.9842 56.6059 50.9842 58.0556C50.9489 59.187 50.1357 59.9648 49.0043 60.0002C48.8982 60.0002 48.7568 60.0002 48.6507 60.0002C36.2052 60.0002 23.7597 60.0002 11.3142 60.0002C9.72319 60.0002 8.9807 59.2577 8.9807 57.6666C8.9807 56.1817 8.9807 54.6967 8.9807 53.2117C8.9807 53.1764 8.94534 53.141 8.94534 53.0349C8.7332 53.0349 8.52106 52.9996 8.27357 52.9996C5.9754 52.9996 3.67722 52.9996 1.34369 52.9996C1.0962 52.9996 0.813345 52.9996 0.601206 52.9289C0.141571 52.7521 -0.0705681 52.3632 0.000144975 51.8682C0.070858 51.3732 0.45978 51.0196 1.02548 51.0196C2.19225 51.0196 3.32366 51.0196 4.49042 51.0196C5.90468 51.0196 7.3543 51.0196 8.76856 51.0196C10.1828 51.0196 10.996 51.8328 10.996 53.2117C10.996 54.8028 10.996 56.3585 10.996 57.9849C23.6537 57.9849 36.2759 57.9849 48.9689 57.9849C48.9689 57.2424 48.9689 56.4999 48.9689 55.7574C48.9689 54.8381 48.9689 53.9189 48.9689 52.9996C49.0043 51.9035 49.8175 51.0196 50.9489 51.0196C53.6006 50.9843 56.2524 51.0196 58.9041 51.0196C59.4344 51.0196 59.7173 51.3378 59.9648 51.7268C60.0002 51.9035 60.0001 52.151 60.0001 52.3632Z" fill="#C5A57E"/>
<path d="M20.012 46.9535C19.9413 48.8981 19.0928 50.4538 17.6785 51.7266C17.2542 52.1155 16.6885 52.0802 16.2996 51.6912C15.9107 51.3023 15.9107 50.7366 16.2642 50.3123C16.5117 50.0295 16.7946 49.782 17.0067 49.4991C18.2442 47.9435 18.2442 46.0696 16.9714 44.5139C16.6885 44.1603 16.3703 43.8775 16.0167 43.5592C13.1882 40.8368 13.2236 36.9829 16.1582 34.3666C16.6532 33.9069 17.2542 33.8716 17.6785 34.2958C18.1028 34.7201 18.0674 35.3212 17.5371 35.8515C16.6178 36.7354 15.9107 37.7608 15.946 39.1043C15.9814 40.2711 16.5117 41.1904 17.2896 42.0036C17.8553 42.6046 18.421 43.1703 18.916 43.8421C19.6938 44.726 19.9767 45.8221 20.012 46.9535Z" fill="#C5A57E"/>
<path d="M20.118 21.8857C20.3655 22.0979 20.7544 22.2747 20.8605 22.5575C20.9665 22.8404 20.8958 23.2646 20.7544 23.5829C20.613 23.8657 20.2948 24.0778 20.0826 24.3253C18.633 25.9871 18.633 28.0024 20.118 29.6642C20.613 30.2299 21.214 30.7249 21.6737 31.3259C23.7597 33.9777 23.3354 37.3719 20.6837 39.6701C20.2594 40.059 19.623 40.0236 19.2694 39.5994C18.8805 39.1751 18.9159 38.6447 19.3401 38.1851C20.0119 37.5133 20.613 36.8062 20.8251 35.8516C21.1787 34.5434 20.7898 33.412 19.9412 32.422C19.4462 31.8209 18.8098 31.2906 18.3148 30.6542C16.052 27.8256 16.7238 24.4668 19.2694 22.2039C19.5169 22.0979 19.7644 22.0625 20.118 21.8857Z" fill="#C5A57E"/>
<path d="M41.0139 43.453C41.0139 45.2561 41.0139 47.0947 41.0139 48.8979C41.0139 49.7464 40.2007 50.2768 39.5642 49.8525C39.3167 49.6757 39.0692 49.2514 39.0339 48.9686C38.9985 45.3268 38.9985 41.6851 38.9985 38.0434C38.9985 37.407 39.4228 37.0181 40.0239 37.0181C40.5896 37.0181 40.9785 37.4423 41.0139 38.1141C41.0139 39.8819 41.0139 41.6851 41.0139 43.453Z" fill="#C5A57E"/>
<path d="M36.6649 51.2671C36.6649 52.2571 35.9224 52.7168 35.2507 52.3985C34.6143 52.0803 33.9778 51.6914 33.3768 51.3379C31.4322 50.2064 29.4522 49.075 27.5076 47.9436C27.0833 47.6961 26.8005 47.3426 26.8712 46.8476C26.9419 46.3879 27.2247 46.0344 27.7197 45.999C27.9672 45.999 28.2854 46.0344 28.4976 46.1758C31.0079 47.6254 33.5536 49.075 36.0285 50.5247C36.3467 50.7368 36.5589 51.1257 36.6649 51.2671Z" fill="#C5A57E"/>
<path d="M48.0496 41.9329C47.9789 42.1097 47.9081 42.3218 47.8021 42.534C46.3525 45.0443 44.9382 47.5192 43.4886 50.0295C43.135 50.666 42.5693 50.8427 42.039 50.5599C41.5086 50.2417 41.3672 49.676 41.7561 49.0396C43.2057 46.5292 44.6553 44.0189 46.105 41.5086C46.3878 41.0136 46.7767 40.8015 47.3424 40.9429C47.7667 41.049 47.9789 41.4025 48.0496 41.9329Z" fill="#C5A57E"/>
<path d="M53.1055 47.2362C52.9994 47.3776 52.8226 47.7312 52.5398 47.908C49.9941 49.393 47.4131 50.8779 44.8674 52.3629C44.3017 52.6811 43.736 52.5043 43.4532 52.0093C43.1703 51.5143 43.3471 50.9486 43.8774 50.6304C46.4231 49.1455 48.9688 47.6605 51.5144 46.2109C52.2923 45.7159 53.1408 46.1755 53.1055 47.2362Z" fill="#C5A57E"/>
<path d="M38.6094 49.7822C38.3972 50.0297 38.2204 50.4186 37.9376 50.5247C37.6547 50.6308 37.2305 50.5247 36.9123 50.4186C36.7708 50.3833 36.6294 50.1358 36.5587 49.9943C35.1091 47.5194 33.6595 45.0091 32.2452 42.4988C31.9977 42.1098 31.8916 41.6502 32.2452 41.2966C32.4927 41.0491 32.917 40.9077 33.2705 40.9077C33.518 40.9077 33.8362 41.1906 33.9777 41.4381C35.4626 43.9837 36.9476 46.5294 38.3972 49.0751C38.4326 49.2519 38.4679 49.464 38.6094 49.7822Z" fill="#C5A57E"/>
<path d="M30.5127 55.0149C29.1691 55.0149 27.8256 55.0149 26.482 55.0149C26.3053 55.0149 26.1285 55.0149 25.9517 55.0149C25.386 54.9442 24.9971 54.5553 24.9971 54.0249C24.9971 53.4946 25.4213 53.035 26.0224 52.9996C26.4113 52.9642 26.8003 52.9996 27.1892 52.9996C29.7348 52.9996 32.2805 52.9996 34.7908 52.9996C35.4626 52.9996 35.8869 53.2825 35.9929 53.8128C36.1344 54.5199 35.6747 55.0149 34.8615 55.0149C33.4119 55.0149 31.9623 55.0149 30.5127 55.0149Z" fill="#C5A57E"/>
<path d="M40.0239 54.9792C39.4582 54.9792 39.0339 54.5549 38.9985 53.9892C38.9985 53.4235 39.4228 52.9639 39.9532 52.9639C40.4835 52.9639 40.9785 53.4235 40.9785 53.9539C41.0139 54.5196 40.5896 54.9792 40.0239 54.9792Z" fill="#C5A57E"/>
<path d="M24.007 43.9837C24.5373 43.9837 24.997 44.4787 24.9616 45.0091C24.9616 45.5748 24.4666 46.0344 23.9363 45.999C23.4059 45.9637 22.9463 45.504 22.9463 44.9737C23.017 44.4434 23.4766 43.9484 24.007 43.9837Z" fill="#C5A57E"/>
<path d="M56.9948 45.0087C56.9948 45.5744 56.4998 46.0341 55.9695 45.9987C55.4391 45.9987 54.9795 45.4684 54.9795 44.9734C54.9795 44.443 55.4745 43.9834 56.0048 43.9834C56.5705 43.9834 56.9948 44.4784 56.9948 45.0087Z" fill="#C5A57E"/>
</g>
<defs>
<clipPath id="clip0_253_215">
<rect width="60" height="60" fill="white"/>
</clipPath>
</defs>
</svg>
