<svg width="60" height="60" viewBox="0 0 60 60" fill="none" xmlns="http://www.w3.org/2000/svg">
<g clip-path="url(#clip0_251_190)">
<path d="M60 13.2C60 12.8824 59.8588 12.4588 59.6117 12.2118C55.7294 8.29412 51.847 4.41176 47.9647 0.529412C47.6823 0.282353 47.2588 0.0352941 46.9058 0.0352941C36.3176 0 25.7647 0 15.2117 0C14.3647 0 14.0117 0.352941 14.0117 1.2C14.0117 3.70588 14.0117 6.21176 14.0117 8.68235C14.0117 9.52941 14.3647 9.95294 15.0352 9.95294C15.6705 9.95294 16.0235 9.49412 16.0235 8.64706C16.0235 6.63529 16.0235 4.65882 16.0235 2.64706C16.0235 2.43529 16.0235 2.22353 16.0235 1.97647C16.2 1.97647 16.3058 1.94118 16.4117 1.94118C26.3294 1.94118 36.247 1.94118 46.1647 1.94118C46.4117 1.94118 46.7294 2.08235 46.9058 2.25882C49.9764 5.32941 53.047 8.4 56.1529 11.5059C56.2588 11.6118 56.3647 11.7529 56.4705 11.8941C53.6117 11.8941 50.8588 11.8941 48.0352 11.8941C48.0352 9.95294 48.0352 8.04706 48.0352 6.17647C48.0352 5.36471 47.6823 4.94118 47.047 4.94118C46.4117 4.94118 46.0588 5.36471 46.0588 6.17647C46.0588 8.32941 46.0588 10.5176 46.0588 12.6706C46.0588 13.6235 46.3764 13.9412 47.3294 13.9412C50.647 13.9412 54 13.9412 57.3176 13.9412C57.5294 13.9412 57.7764 13.9412 58.0235 13.9412C58.0235 28.6235 58.0235 43.2353 58.0235 57.9529C57.7411 57.9529 57.4941 57.9529 57.247 57.9529C48.5647 57.9529 39.9176 57.9529 31.2352 57.9529C30.4941 57.9529 30.0705 58.3059 30.0352 58.9412C30.0352 59.5765 30.4588 59.9647 31.1647 59.9647C40.3764 59.9647 49.6235 59.9647 58.8352 59.9647C59.647 59.9647 60 59.6118 60 58.7647C60 43.5882 60 28.4118 60 13.2Z" fill="#C5A57E"/>
<path d="M23.6469 44.047C20.0822 43.9059 16.5175 44.0117 12.9528 44.0117C12.3528 44.0117 11.9293 44.4706 11.9646 45.0706C11.9999 45.6706 12.4234 45.9882 13.1293 45.9882C16.3411 45.9882 19.5881 45.9529 22.7999 45.9882C24.8822 46.0235 26.4705 46.9412 27.4234 48.847C28.2352 50.5059 27.8469 52.2706 27.9175 53.9647C19.1999 53.9647 10.5881 53.9647 1.94106 53.9647C1.94106 52.8 1.83518 51.6353 1.97635 50.5059C2.22341 48.2823 3.494 46.8 5.64694 46.2C6.38812 45.9882 7.16459 46.0588 7.94106 45.9882C8.54106 45.9529 8.92929 45.5647 8.92929 45C8.92929 44.4353 8.54106 44.047 7.94106 44.0117C7.55282 43.9765 7.16459 44.0117 6.74106 44.0117C3.4587 44.047 0.493999 46.4823 0.0704696 49.7294C-0.176589 51.4941 -0.0707069 53.3294 -0.0707069 55.1647C-0.0707069 55.6941 0.352823 56.0118 0.917529 56.0118C1.23518 56.0118 1.55282 56.0118 1.90576 56.0118C1.90576 57 1.90576 57.8823 1.90576 58.8C1.90576 59.6823 2.22341 60.0353 3.10576 60.0353C10.9764 60.0353 18.8469 60.0353 26.7175 60.0353C27.5646 60.0353 27.8822 59.6823 27.9175 58.8706C27.9175 57.9529 27.9175 57.0353 27.9175 56.047C28.1646 56.047 28.3764 56.047 28.5528 56.047C29.6469 56.047 29.9293 55.7647 29.9293 54.6706C29.9293 53.3647 29.9293 52.0941 29.9293 50.7882C29.9646 47.3294 27.1058 44.1882 23.6469 44.047ZM25.9411 57.9529C18.6705 57.9529 11.3646 57.9529 4.02341 57.9529C4.02341 57.2823 4.02341 56.6823 4.02341 56.0118C11.3293 56.0118 18.5999 56.0118 25.9411 56.0118C25.9411 56.647 25.9411 57.2823 25.9411 57.9529Z" fill="#C5A57E"/>
<path d="M9.847 29.1531C11.0117 30.8825 11.9646 32.6825 11.9999 34.8354C11.9999 35.5766 12.3882 36.0001 13.0235 36.0001C13.6588 36.0001 14.0117 35.5766 14.0117 34.8354C14.047 32.8236 13.3764 31.0236 12.3529 29.3648C11.3999 27.8472 10.3058 26.4354 9.28229 24.9531C7.62347 22.6236 7.62347 19.4825 9.247 17.0825C10.8705 14.6825 13.8705 13.5178 16.6235 14.2236C21.5999 15.4589 23.6117 21.1766 20.4705 25.3413C19.7294 26.2942 19.0235 27.2825 18.3176 28.2707C16.7646 30.5648 15.7764 33.0354 15.9882 35.8589C16.0235 36.5295 15.9882 37.2354 15.9882 38.0119C14.8941 38.0119 13.8705 38.0119 12.847 38.0119C11.2941 38.0472 9.95288 39.3884 9.98818 40.906C9.98818 41.5413 10.3411 41.9295 10.8705 42.0001C11.4352 42.0707 11.8941 41.7178 11.9999 41.0825C12.1411 40.306 12.4588 40.0236 13.2705 40.0236C14.3999 40.0236 15.5294 40.0236 16.6588 40.0236C17.6117 40.0236 17.8588 40.2354 18.0352 41.1531C18.1411 41.7178 18.5646 42.0354 19.0941 42.0001C19.6235 41.9648 20.0117 41.5766 20.0117 41.0119C20.047 40.0942 19.7294 39.1766 18.9529 38.7531C17.9999 38.2236 17.9646 37.5178 18.0352 36.6707C18.0705 36.3531 18.0705 36.0001 18.0352 35.6825C17.9294 33.7413 18.4588 31.9766 19.4823 30.3531C20.2588 29.1178 21.1411 27.9178 22.0235 26.7178C23.647 24.6001 24.3529 22.2707 23.9294 19.6236C23.2941 15.8825 20.5411 12.9531 16.8352 12.1766C13.2705 11.4001 9.49406 12.9884 7.447 16.0942C5.39994 19.2354 5.50582 23.2236 7.72935 26.2942C8.43524 27.2472 9.17641 28.1648 9.847 29.1531Z" fill="#C5A57E"/>
<path d="M45.7765 23.4706C43.4471 22.2 40.9765 21.7412 38.3647 22.0941C31.8 22.9764 27.1765 29.047 28.0941 35.5764C28.9412 41.5764 33.953 45.9529 39.5294 45.9882C41.8235 46.0235 43.6588 45.5647 45.353 44.7176C50.1883 42.2823 52.9059 36.7412 51.7412 31.5529C51.6 30.8823 51.1765 30.5647 50.6471 30.6C49.9765 30.6706 49.6235 31.2353 49.8 32.047C50.0471 33.2823 50.0471 34.5176 49.8353 35.7529C48.8824 41.0117 43.8706 44.4706 38.7177 43.8706C33.2118 43.2 29.0471 37.5882 30.1765 32.1529C31.5883 25.3764 38.6824 22.0235 44.8235 25.2353C45.5647 25.6235 46.1647 25.5176 46.4471 24.9176C46.7294 24.3882 46.4824 23.8588 45.7765 23.4706Z" fill="#C5A57E"/>
<path d="M40.0941 35.4354C39.8823 35.1883 39.7059 34.9766 39.5294 34.7648C38.3294 33.3177 37.1294 31.8707 35.9294 30.4589C35.4706 29.8942 34.8706 29.8236 34.4117 30.2119C33.9176 30.6354 33.9176 31.1648 34.3764 31.7648C35.9647 33.6707 37.5529 35.5766 39.1412 37.4824C39.7412 38.1883 40.3059 38.2236 40.9412 37.5177C44.5059 33.6354 48.0706 29.753 51.6353 25.8707C52.2 25.2354 52.2353 24.6707 51.7059 24.2471C51.247 23.8236 50.6823 23.9295 50.1176 24.5295C47.8235 27.0001 45.5647 29.506 43.2706 31.9766C42.247 33.106 41.1882 34.2707 40.0941 35.4354Z" fill="#C5A57E"/>
<path d="M40.9059 8.01172C38.2941 8.01172 35.6471 8.01172 33.0353 8.01172C30.4588 8.01172 27.8824 8.01172 25.2706 8.01172C25.0235 8.01172 24.7059 8.04701 24.4941 8.1529C24.0353 8.36466 23.8941 8.78819 24.0353 9.28231C24.1765 9.81172 24.5647 10.0235 25.1294 10.0235C27.9177 10.0235 30.7059 10.0235 33.4941 10.0235C35.9294 10.0235 38.3647 10.0235 40.8 10.0235C41.2941 10.0235 41.6471 9.9176 41.8941 9.45878C42.2471 8.7176 41.753 8.01172 40.9059 8.01172Z" fill="#C5A57E"/>
<path d="M36.8118 13.9765C37.1294 13.9765 37.5882 13.8 37.7647 13.5529C37.9412 13.3059 38.0118 12.7765 37.8353 12.5294C37.6588 12.2471 37.1647 12 36.8471 12C33 12 29.1529 12 25.2706 12C24.4235 12 24 12.3529 24 13.0235C24 13.6941 24.4588 14.0118 25.3059 14.0118C27.2118 14.0118 29.0824 14.0118 30.9882 14.0118C32.9294 14.0118 34.8706 14.0118 36.8118 13.9765Z" fill="#C5A57E"/>
</g>
<defs>
<clipPath id="clip0_251_190">
<rect width="60" height="60" fill="white"/>
</clipPath>
</defs>
</svg>
